/* XPM */
static char *c8756daee46e479ff89ba668cdfbb51cTheTcaj6igI0IqHe[] = {
/* columns rows colors chars-per-pixel */
"64 64 250 2 ",
"   c #773F0C",
".  c #794908",
"X  c #895603",
"o  c #9B5A04",
"O  c #915813",
"+  c #A15E05",
"@  c #996718",
"#  c #9B6A0A",
"$  c #A96706",
"%  c #B8770B",
"&  c #A26A1C",
"*  c #A77514",
"=  c #AC7717",
"-  c #BB7816",
";  c #AC6D0B",
":  c #9E792E",
">  c #9D6A2B",
",  c #A87728",
"<  c #B37B21",
"1  c #B4732C",
"2  c #B97829",
"3  c #AA783B",
"4  c #B97632",
"5  c #B87936",
"6  c #AF6C2B",
"7  c #C57E1A",
"8  c #D67D1F",
"9  c #C27B23",
"0  c #C57B2C",
"q  c #C57E3A",
"w  c #D27A23",
"e  c #E07D22",
"r  c #B97D45",
"t  c #A27241",
"y  c #A88114",
"u  c #BA8519",
"i  c #BD850E",
"p  c #BC8C29",
"a  c #B78628",
"s  c #B8932D",
"d  c #AC8434",
"f  c #B88739",
"g  c #B79439",
"h  c #AF8A2F",
"j  c #CB8819",
"k  c #D88719",
"l  c #DC9B1C",
"z  c #CE8A0D",
"x  c #E88E1E",
"c  c #F4A71B",
"v  c #C78826",
"b  c #DB8C2B",
"n  c #D88727",
"m  c #C5962B",
"M  c #DA9828",
"N  c #CD8332",
"B  c #C78639",
"V  c #D18535",
"C  c #DB8C33",
"Z  c #D58A3A",
"A  c #DC8C39",
"S  c #D58A35",
"D  c #CA9638",
"F  c #D49B3B",
"G  c #D99739",
"H  c #E28525",
"J  c #E38B24",
"K  c #E3862B",
"L  c #E48B2B",
"P  c #E98C2C",
"I  c #EA8928",
"U  c #E69529",
"Y  c #E38D35",
"T  c #E98933",
"R  c #E59233",
"E  c #ED9433",
"W  c #E69239",
"Q  c #E99736",
"!  c #F29333",
"~  c #F58D36",
"^  c #CDA434",
"/  c #DBA43E",
"(  c #D8A937",
")  c #DCB237",
"_  c #E9A628",
"`  c #F3AB2B",
"'  c #F5AA27",
"]  c #F6B32C",
"[  c #FCB22D",
"{  c #FBB628",
"}  c #EDAC34",
"|  c #E4A93C",
" . c #ECAC3C",
".. c #E8A737",
"X. c #F3AD33",
"o. c #FCAF32",
"O. c #F3AE3C",
"+. c #F7AA37",
"@. c #F5B233",
"#. c #FBB333",
"$. c #FEB934",
"%. c #FBB43B",
"&. c #FEBB3C",
"*. c #F4B53A",
"=. c #E2B03F",
"-. c #E3C03E",
";. c #AD8246",
":. c #BA8848",
">. c #BB9450",
",. c #C18542",
"<. c #C58A47",
"1. c #C89346",
"2. c #D69943",
"3. c #C28D5A",
"4. c #C89658",
"5. c #D4995C",
"6. c #D28D48",
"7. c #E79741",
"8. c #C9A147",
"9. c #DCA343",
"0. c #D9AB47",
"q. c #D8B358",
"w. c #CAA856",
"e. c #E6A946",
"r. c #ECB342",
"t. c #E7B64A",
"y. c #F4B343",
"u. c #FCB542",
"i. c #FEBA44",
"p. c #F7B948",
"a. c #E6A852",
"s. c #E7B858",
"d. c #F8BA53",
"f. c #C68D67",
"g. c #CA9364",
"h. c #CB9A64",
"j. c #CD956A",
"k. c #CE996C",
"l. c #C69263",
"z. c #D1966C",
"x. c #D29A6D",
"c. c #D69B66",
"v. c #CE9D70",
"b. c #D59C71",
"n. c #D99B73",
"m. c #D5A26D",
"M. c #DBA36D",
"N. c #D8A669",
"B. c #DBB361",
"V. c #D6A372",
"C. c #DCA675",
"Z. c #DDA976",
"A. c #D7A679",
"S. c #DAA57A",
"D. c #DEAB7A",
"F. c #D6AA78",
"G. c #DDB27B",
"H. c #C8A263",
"J. c #E2A96F",
"K. c #ECBE64",
"L. c #E3AB75",
"P. c #E3AC7A",
"I. c #E3A576",
"U. c #E6B177",
"Y. c #E8B277",
"T. c #E5B17D",
"R. c #E9B27A",
"E. c #EDBA7B",
"W. c #F7B87D",
"Q. c #EDCB4C",
"!. c #EAC54A",
"~. c #FFC242",
"^. c #F5C84A",
"/. c #F5D44B",
"(. c #EBC452",
"). c #ECC75A",
"_. c #F3CC52",
"`. c #F1CB5B",
"'. c #FBC755",
"]. c #F5D254",
"[. c #FAD454",
"{. c #FCDA54",
"}. c #F6D25B",
"|. c #FCD45B",
" X c #FEDB5C",
".X c #F6DA56",
"XX c #EBD255",
"oX c #ECC662",
"OX c #F2CC62",
"+X c #F6CA69",
"@X c #FCD463",
"#X c #FEDB63",
"$X c #FBD56B",
"%X c #F5D465",
"&X c #F9CE74",
"*X c #FCD575",
"=X c #FFDB73",
"-X c #FEDB7D",
";X c #F7D772",
":X c #EBD663",
">X c #FFE36A",
",X c #FFE576",
"<X c #DFAD82",
"1X c #DFB181",
"2X c #E3AE80",
"3X c #E7A883",
"4X c #E5B482",
"5X c #E9B584",
"6X c #E6B884",
"7X c #EBBA86",
"8X c #ECB68A",
"9X c #E6BB8B",
"0X c #EDBC8A",
"qX c #F1BD85",
"wX c #F1BD8B",
"eX c #F0B782",
"rX c #EABF92",
"tX c #F2BD90",
"yX c #EEC18D",
"uX c #EAC587",
"iX c #F2C28D",
"pX c #F1C888",
"aX c #EEC494",
"sX c #EDC89A",
"dX c #F5C793",
"fX c #F4C593",
"gX c #F8C397",
"hX c #F9C595",
"jX c #F2C993",
"kX c #F5CA95",
"lX c #F6C995",
"zX c #F7CC97",
"xX c #F5CC96",
"cX c #F4C995",
"vX c #FAC996",
"bX c #F6C799",
"nX c #F6C698",
"mX c #F6CC9A",
"MX c #FACD9C",
"NX c #F9D296",
"BX c #FBD19D",
"VX c #F9D49E",
"CX c #F9D48E",
"ZX c #FFE684",
"AX c #FECEA1",
"SX c #FDCEA2",
"DX c #FDD3A2",
"FX c #FFD8A6",
"GX c #FFDBAA",
"HX c #FDD4A7",
/* pixels */
"wXwXwXwXwXwXwXwXwXiXwX0X0XwX5XD.D.D.D.D.P.2XP.P.P.P.P.P.P.P.P.P.P.P.P.P.P.P.P.P.I.I.L.I.L.L.L.L.8XwX4X0XwX7XwX6XwXwXwXwXwXwXwXwX",
"0X0X0X0X0X0X0X0X0X0X0X7X0X0X6XD.Z.Z.Z.Z.D.P.P.P.C.C.C.C.C.I.C.C.P.L.L.L.L.L.P.P.P.P.P.P.P.P.P.P.8XwX5XwXwX7XwX5X0X0X0X0X0X0X0X0X",
"0X0X0X0XyXyXyXyX0X0X0X7X0X0X7XT.D.D.D.D.D.D.C.C.P.P.P.P.P.P.P.P.4X4X4X4X2X2X2X2XP.P.P.P.P.P.P.P.wXgXwXtXiXwXdXiX0X0X0X0X0X0X0X0X",
"iXiXiXiXiXiXiXiXyXyXyXyXiXiX0X7X0X0X0X0X5XP.V.x.g.g.g.g.g.g.g.g.g.g.g.g.g.g.g.g.g.g.g.g.g.g.g.g.j.x.g.j.k.k.Z.D.yXyXyXyXyXyXyXyX",
"lXlXlXlXlXlXlXlXlXdXdXlXlXlXdXdXzXnXzXMXdX4Xx.h.b.b.b.b.b.b.b.b.b.b.b.b.b.b.b.b.b.b.b.b.b.b.b.b.b.V.k.x.m.Z.iXlXdXdXdXdXnXnXdXdX",
"lXlXlXlXxXlXlXlXMXxXxXMXMXMXxXMXMXMXMXDXzX4Xx.l.z.z.z.z.z.z.z.z.x.x.x.x.x.x.x.x.j.j.j.j.j.j.j.j.j.b.g.j.k.V.fXMXxXxXxXxXmXxXxXxX",
"lXlXlXlXlXlXlXlXMXlXlXMXMXlXlXMXMXlXzXBXlX4Xk.h.j.j.j.j.j.j.j.j.j.j.j.j.j.j.j.j.x.x.x.x.x.x.x.x.g.b.j.j.k.V.wXMXxXxXxXxXmXxXmXxX",
"jXjXjXjXjXjXjXjXxXjXjXxXxXaXjXxXlXaXnXMXnX4XV.x.b.b.b.b.b.b.b.b.b.b.b.b.b.b.b.b.b.b.b.b.b.b.b.b.z.S.n.b.b.V.wXMXlXlXlXlXlXlXlXcX",
"gXgXgXgXgXgXgXgXbXbXbXbXbXbXbXbXiXhXvXhXiXT.m.h.b.b.z.j.k.v.j.f.b.b.b.v.b.b.b.b.k.k.x.x.x.k.k.k.x.k.h.j.v.D.rXSXmXaXmXSXbXzXMXgX",
"D.D.D.D.P.D.D.D.A.A.A.A.A.A.A.A.C.D.P.D.Z.x.h.3.f.f.g.j.V.2X<XD.A.A.A.A.A.A.S.A.V.V.V.S.S.S.D.D.S.S.S.S.Z.D.6X9XyX9X9X9XD.S.D.V.",
"k.k.k.k.j.j.k.k.k.k.k.k.k.k.k.k.x.z.x.x.z.z.j.j.j.j.x.V.4XnXMXMXAXAXAXAXAXAXAXAXAXAXAXAXAXSXHXHXSXSXSXAXAXMXSXDXVXmXDXnXD.b.V.b.",
"k.k.k.k.k.k.k.k.b.b.b.b.b.b.b.b.b.z.z.z.b.b.n.n.b.b.b.S.8XMXDXDXDXDXDXMXMXMXMXMXSXAXAXAXAXAXAXMXSXSXAXMXmXMXDXDXDXDXGXmXA.j.k.x.",
"b.b.b.b.b.b.b.b.x.x.x.x.x.x.x.x.z.z.z.z.z.z.z.z.x.x.k.b.4XfXmXmXmXmXmXMXMXMXBXMXMXMXSXDXDXDXMXmXSXDXDXAXMXDXDXBXmXMXFXbXV.l.j.z.",
"j.j.j.j.j.j.j.j.z.z.z.z.j.z.z.z.x.x.x.x.x.x.j.j.x.k.k.V.6XMXDXMXcXcXcXmXmXmXMXMXcXcXmXMXBXBXDXBXjXNXBXBXMXMXzXnXDXDXHXMXD.b.n.b.",
"j.j.j.j.j.z.z.j.x.x.x.x.k.x.x.x.x.x.x.b.x.x.x.x.x.x.k.V.0XMXBXmXBXDXDXDXFXFXGXGXVXVXBXNXNXNXNXNXpXCXNXjXjXBXFXDXmXbXMXtXS.k.b.z.",
"b.b.x.x.x.x.x.x.j.j.j.j.j.j.j.j.h.h.h.h.h.h.h.h.h.l.l.h.Z.9X9X6X4X4X6X6X0X0X0X0XuXuXG.N.H.4.4.4.w.w.4.>.>.F.0XfXMXbXbXtXS.x.x.j.",
"P.P.P.P.C.C.P.P.S.S.>.;.>.g h g 1.h h s h g g : g h , d g g g g h 8.>., d N.6X4Xf 1.8.s.OX,X`.}.*X(.#X#Xq.4.V.5XP.P.P.P.P.P.P.P.",
"L.P.P.P.P.P.P.P.8XZ.t ;.B.oXK.K.+X*X$XOXOX;X-X-X+X*X*X&X+X+X%X%X}.OX$X*Xq.d , f oXOX`.}.`.#X!.@X(.#X#X(.B.;.P.P.P.P.P.P.P.P.P.P.",
"D.P.P.T.P.P.P.P.L.M.3 :.0.p a 2 s ).`.#X#X!.(.%X+X+XoXs.).#X#X_._.[.|.|.#X=X$X).!.XX.X.XQ.) m ( ].|.`.*X: 3 P.P.P.P.P.P.P.P.P.P.",
"T.P.P.T.T.P.P.P.L.Y.f 1./ u G a.y %X#X].[.#X#X( o < p = y ^ _. X X^.!.].].Q.}.>X.X.X X X{.Q.-.|.{.Q.OXB.. ;.D.T.P.P.P.P.P.P.P.P.",
"4XP.P.P.P.Z.Z.P.L.Y.<.a.d.j % ; # ^ (.#X}.(.`.^ 0.s.s.F m ) _.]. X[.[. X#X X].Q.OX).`.`. X|.^.{./.#Xs.X > 3.T.Z.P.P.P.P.P.P.P.P.",
"P.Z.Z.P.4XP.P.T.6XE.,.F p.} .. .t.v u =.@X$X@XD * * * a 0.@X#X]._.#X|.!.^.|.( # * = p m (.#X|.{. Xt.< @ ,.,.5XS.P.P.P.P.P.P.P.P.",
"Z.V.D.7XiXwX0XiXF.7X5.9.i.#.@.y...'.y.i % 0.$X).`.}.}.}.}.|.[.[.[.Q.].>X|.| ( e.r.| / u 0.`.}.!.'.u o a.B 5 L.3XI.I.C.C.C.C.C.C.",
"V.V.P.dXBXMXMXMXHXFXJ.F } $.#.i.%.#.@.} ( u p t.{.].].].[./././..X/./.[.'.r.| | } } | u t.@X@X(.a = Z 2.v B c.3XC.C.C.V.V.V.V.V.",
"2XS.2XmXDXMXmXVXsXmXE.D i.' ] #.#.$.#.` &.} ( $ a K.=X@Xt.].}. X/.].|.@Xd.e.e.e.t./ m s s.=Xs.# n n K b N 4 L.P.C.C.C.C.C.C.C.I.",
"D.S.4XzXHXDXDXHXVXDXE.2.*.[ [ &.&.X.X.~.` &.~.*.u ; m 0.0.p ) [.[. X Xt.M m m D p = p OX=XF = v H K P C V 4 L.P.P.P.P.P.P.P.P.P.",
"D.Z.4XzXFXDXDXFXVXFXY.9. .&.#.%. .O.O.i.%.X.l @._ } p X f q.}.[._._.[./.!.) ( 9.s.+X-Xs.= = C W K L P C N 4 J.D.P.P.P.P.P.P.P.P.",
"Z.Z.2XfXMXmXfXmXcXlXU.2.r.&.#._ % o j U X.&.~.] ] &.p.F X * 0.`.OX}.].Q.].#X*X&X&XoXp ; N 7.L 8 K L P b N 1 M.Z.C.C.C.C.C.C.C.C.",
"Z.Z.D.7X0X6X4X6X6X6XU.1.p.&.@.k n v v % U %.] ' %.%._ i.r.v X @ q.;X,X:X:XZX-Xq.f * 2 G C b P H K P Y b N 1 c.Z.C.C.C.C.C.C.C.C.",
"Z.Z.D.P.P.Z.Z.Z.Z.Z.L.f t.*.%.z R b b n % } &.' %.` &.] *.r.a.1 . , q.ZXZXq., X - G C n L L H E L P R C V 4 J.S.P.P.P.P.P.P.P.P.",
"Z.Z.Z.Z.Z.V.V.Z.m.Z.L.,.F  .u.x k E R C 7 M _ #.[ [ ] _ } M  .'.m # X @ @ X $ C b 8 n E K H P E L P R C V 4 J.P.P.P.P.P.P.P.P.P.",
"Z.Z.Z.Z.Z.Z.Z.P.c.P.Z.1.m  .i.+.x J Q R v - O.i.{ $.&.i.M j z l d.G 2 6 4 Z Y P J ! ! I I L K b H K P C V 4 J.P.C.C.C.C.C.C.C.C.",
"P.P.P.P.P.P.P.P.m.C.P.M.& B d.p.; n G A 7 7 _ @.#.#.%.X.M j j ..[ i.v 9 Y L P K L L L L L L L L K ! K C V 1 W.m.D.P.P.D.Z.D.D.Z.",
"C.C.C.C.C.C.C.C.N.T.M.L.4.1 = t.M j $ - b k U ~.#.#.@.@._ l M  .[ i.v 9 Y L P K L L L L L L L L L P K Y Z 1 J.C.Z.D.D.C.Z.Z.Z.Z.",
"Z.Z.Z.Z.Z.Z.Z.Z.h.6XZ.T.eX5.& , p...i.i.X.%.&.o.[ [ #.#.@._ X.%.[ u.v 9 Y L P L L L L L L L L L U k K W Z 4 c.P.V.Z.C.V.Z.D.D.Z.",
"T.T.T.T.T.T.T.T.T.7XT.Z.D.iXJ.f = / i._ ] [ ' &.$.] ] $.$.#.@.%.[ %.j 9 Y L P L L L L L L L L L J J L C B ,.c.2XV.V.V.V.Z.P.T.P.",
"7X7X7X7X7X7X8X8XdXD.0XjX4X6XdX6XN.f F i.@.$.[ $.$.[ ] #.$.%.#.[ [ *.7 9 R L L L L L L L L L L L x U R 0 q 5.c.P.V.Z.Z.Z.P.5X5X5X",
"0X0X0X0X0X0XwXwX0X4X0XnXMX0X0X0X8XM.1.D y.%._ ` %.#.#.#.$.#.[ ` [ O.- 9 R L L L L L L L L L L L H E S 4 ,.J.V.I.Z.Z.Z.Z.T.0XwX7X",
"0X0X0X0X0X0X0X0XfXfX0XV.iX0X0X0XfX7XM.4.B e.d.y.@.#.#.#.#.o.#.[ [ O.- 9 W L L L L L L L L L L L K W 0 q 4.P.V.I.Z.Z.C.Z.T.0XwX0X",
"7X7X7X7X7X7X7X7X8X5XhX7XwXP.0X0X6XiX5X8XM.5 a m X.@.%.@.o.o.#.%.#.O.- 9 W L L L L L L L L L L L T A 6 6.c.R.b.P.C.Z.V.C.T.0XwX7X",
"0X0X0X0X0X0X0X0XzX4X8XtX8XtXwXtX7X7X7X7XT.L.N.m.B e.i.' c [ o.u.[ %.$ C K P P L L P L K L L H H 7.0 5 c.1XV.k.Z.V.Z.Z.D.T.6X7X0X",
"6X6X6X6X6X6X6X6X6Xk.V.S.b.S.V.S.V.V.C.C.V.m.m.c.1.a y.i.c [ ~._ [ %.$ C K P P L L n L E H n Y W 1 ,.N.T.6X1X4X5XD.D.D.D.T.4X6X6X",
"mXmXMXBXBXBXBXBX4Xk.k.b.j.x.z.x.h.j.j.k.x.x.x.k.4.5 F i.&.' ' &.#.%.$ A Y P P L e ! J k U Q V q 5 L.BXmXaXmXMXvXBXMXMXMXMXmXMXMX",
"BXBXBXBXBXDXDXDXtXV.V.b.x.b.b.b.j.j.j.k.k.x.b.b.V.;.B | O.#.[ $.$.y.$ A Y L P L ~ H I U k S 6.4 D.MXGXmXsXDXDXvXDXBXBXBXBXBXMXMX",
"mXxXmXmXmXmXmXmXtXV.b.x.j.b.z.x.n.b.b.b.b.b.b.b.g.P.<.& G '.` #.#.O.$ A Y P P R T ! H b S 1 r 5XmXmXmXsXaXfXnXdXcXcXcXcXcXlXxXmX",
"BXBXBXBXBXBXDXDXtXb.k.k.j.b.x.x.b.b.b.x.x.z.z.z.n.f.b.4., v r.u.%.r.+ Z Y L L L E L C N 2 4.qXnXmXaXfXMXMXfXfXMXmXmXmXMXMXBXBXDX",
"lXlXlXzXmXmXzXzXtXb.b.b.x.V.b.b.x.x.x.x.x.z.z.z.z.g.n.V.4., < d.%. .o Z Y K K b n 7.N 1 5.iXMXjXlXaXlXBXBXmXmXSXnXnXnXnXnXlXzXzX",
"nXnXnXnXnXnXnXnX0Xk.k.k.k.b.x.z.z.x.x.x.x.x.x.x.n.n.f.f.S.c., < %. .o Z Y H H b C 2 5 c.8X0XyXpXiXiX0X0XiXfXaXrXhXhXnXfXfXfXfXfX",
"T.T.T.P.P.T.T.P.D.Z.Z.Z.Z.Z.C.C.Z.Z.Z.Z.Z.Z.Z.Z.m.M.C.V.P.T.Z.h.& D 2 2 N A 7.w 3 >.N.T.4X4X5X8X6X6X6X6X6X6X6X6X5X5X5X5XT.P.P.P.",
"L.P.T.T.T.T.T.P.T.T.T.T.T.T.P.L.M.M.N.N.M.M.M.M.M.L.L.L.T.iX0XT.:.3 O 6 6.B 2 & M.T.qXiXfXwXwXtX7X7X7X7X7X7X7X7X5X7X5XT.T.P.P.T.",
"L.L.Y.Y.R.Y.Y.Y.L.L.L.L.L.L.L.L.Y.Y.Y.Y.L.Y.Y.Y.L.L.M.C.T.iXiX0XwXr   . 3 :.5.W.yXqXqX7X7X0X5X5X0X0X0X0X0X0X0X0X0XwX0X7X5XR.R.T.",
"Y.L.Y.Y.Y.L.L.L.L.L.L.L.L.L.L.L.L.L.L.L.L.L.L.L.U.U.Z.C.U.7X7X6X8X2Xk.h.D.5XT.5XwXqX7X7X7X0X0X0X6X6X6X6X6X6X6X6X7X7X7X5XT.L.L.L.",
"Y.L.L.L.L.M.M.L.U.U.U.U.Y.Y.Y.Y.L.L.L.L.L.L.L.L.R.R.U.T.T.7X0X7X6XdX0XV.D.7X6X6X5X7X0X0X5X5X0XwX0X0X0X0X0X0X0X0X0X0X0X7X5XT.Y.R.",
"L.V.V.L.L.C.C.T.L.L.L.L.P.P.P.P.T.T.T.T.T.T.T.T.Z.D.D.T.6X0X0X0XT.iX7X7XiXiXwX7XwXfXfXfX0X0X0XwX5X8X8X5X5X5X5X5X5X5X5X5XT.P.P.P.",
"V.V.Z.6X0X6X7XyX6X6X6X6X6X6X6X6X6X6X6X6X7X6X6X7X5X6X5X0X0X0X0XrXdXiXh.h.c.g.x.x.x.x.x.x.k.k.k.k.V.V.V.V.V.V.V.m.V.V.V.m.c.c.c.c.",
"V.V.G.jXMXlXlXBXzXMXMXMXMXMXMXMXMXMXMXMXBXBXBXBXFXDXDXAXMXMXmXmXnXMXZ.P.5Xn.3X3X2XS.S.D.P.4X4XP.Z.Z.Z.Z.Z.Z.Z.Z.D.D.D.D.Z.C.L.L.",
"T.Z.G.dXBXlXjXxXcXmXMXmXmXMXBXMXmXMXMXMXSXSXSXDXDXDXDXDXDXDXDXDXDXdX6XZ.Z.P.P.I.I.C.C.C.C.C.C.C.C.C.C.C.C.C.C.C.C.C.C.C.C.C.C.L.",
"Z.V.D.jXBXMXlXNXlXMXMXmXmXMXBXMXMXMXMXMXDXDXDXDXMXMXmXmXMXMXSXDXNXyXT.V.V.C.I.I.P.P.L.L.I.C.C.C.L.L.L.L.L.L.L.L.I.L.I.I.P.P.P.P.",
"V.m.D.iXMXMXxXBXmXMXBXMXMXMXMXmXMXMXMXMXMXMXBXBXDXDXDXDXDXDXDXDXBXdX6XZ.Z.P.P.P.P.L.L.L.C.C.C.C.Z.Z.Z.Z.Z.Z.Z.Z.C.C.C.C.Z.Z.Z.Z.",
"V.V.D.yXlXdXjXlXlXzXzXlXlXzXmXjXmXnXzXzXzXzXzXzXzXMXMXMXMXMXMXMXlXwXT.Z.Z.P.P.P.C.C.C.C.C.C.C.C.V.V.V.V.V.V.V.V.Z.Z.Z.Z.D.Z.Z.P.",
"D.D.T.0XiX0X0X0X0XyXyX0XyXfX0X6X0X0X0X0X0X0X0X0X5X5X5X0X0X0X0X0X7XT.Z.V.m.V.V.V.C.C.C.C.C.C.C.C.Z.Z.Z.Z.Z.Z.Z.Z.m.m.m.m.V.V.V.V.",
"5X4X5X0X0X7X6X7X6X7X6X6X7X0X6XD.P.P.P.P.P.P.P.P.P.P.P.P.P.4X4X4X5XT.P.Z.Z.D.D.Z.P.P.P.P.P.P.P.P.4X4X4X4X4X4X4X4XwXwXwXwXwXwXwXwX",
"wX7X7X0X7X7X7X0X7X0X6X6X0X0X6XZ.Z.Z.Z.Z.Z.D.D.D.P.T.T.T.T.T.T.4X4X4XT.4X4X4X4XT.P.P.P.P.P.P.P.P.7X7X7X7X7X7X7X7X4X4X4X4X6X6X6X6X",
"wXwX0X0X7X7X0XiXwXwX0X0XwXiX0XT.P.P.P.P.P.P.P.P.D.D.D.P.P.P.P.P.C.C.D.P.P.P.D.D.P.P.P.P.P.P.P.P.7X7X7X7X7X7X7X7X0X0X0X0XwXwXwXwX"
};
