/* XPM */
static char *ef8a1e4f58644b588aed2616e9871ec9eNejCqYjS3ikyLvF[] = {
/* columns rows colors chars-per-pixel */
"64 64 246 2 ",
"   c #3C3111",
".  c #432C0C",
"X  c #44300E",
"o  c #4A320E",
"O  c #462D13",
"+  c #4A2C14",
"@  c #4C2C1A",
"#  c #492A18",
"$  c #552C1D",
"%  c #453314",
"&  c #4A3315",
"*  c #4B3817",
"=  c #4A3519",
"-  c #4D3A1C",
";  c #453419",
":  c #52341B",
">  c #59331E",
",  c #523D1D",
"<  c #593C1D",
"1  c #5C2E21",
"2  c #523D21",
"3  c #5B3C23",
"4  c #593724",
"5  c #4D3C22",
"6  c #642D26",
"7  c #643927",
"8  c #6B3B30",
"9  c #753933",
"0  c #5B411D",
"q  c #55411E",
"w  c #564122",
"e  c #5B4323",
"r  c #5E4829",
"t  c #664829",
"y  c #75482D",
"u  c #6E512D",
"i  c #694832",
"p  c #754A34",
"a  c #7B4C33",
"s  c #744E3B",
"d  c #794839",
"f  c #7A5436",
"g  c #7C523E",
"h  c #7D5C3A",
"j  c #765537",
"k  c #6B5233",
"l  c #7A5040",
"z  c #7D6445",
"x  c #834B39",
"c  c #83543C",
"v  c #8A563C",
"b  c #825D3C",
"n  c #8D5B3C",
"m  c #855237",
"M  c #925D3D",
"N  c #98643E",
"B  c #A26E3B",
"V  c #A2673D",
"C  c #A7733F",
"Z  c #8C4A47",
"A  c #8E4A4A",
"S  c #894545",
"D  c #934B4C",
"F  c #97464C",
"G  c #845441",
"H  c #8A5543",
"J  c #855C43",
"K  c #8B5B44",
"L  c #8E5D48",
"P  c #8E514A",
"I  c #94534D",
"U  c #925D4A",
"Y  c #935B46",
"T  c #934A54",
"R  c #9D4B52",
"E  c #9D4554",
"W  c #9B5354",
"Q  c #9C5C53",
"!  c #9C5458",
"~  c #A34B54",
"^  c #AA4C57",
"/  c #A44D5B",
"(  c #AC4D59",
")  c #A64754",
"_  c #B34E5C",
"`  c #B84F5E",
"'  c #A35355",
"]  c #A55359",
"[  c #AC535B",
"{  c #A75758",
"}  c #B4515E",
"|  c #B9525F",
" . c #B2595F",
".. c #866242",
"X. c #8C6345",
"o. c #8C634B",
"O. c #89684A",
"+. c #936345",
"@. c #936B46",
"#. c #92634B",
"$. c #946B4C",
"%. c #9C6C4D",
"&. c #9C6648",
"*. c #9D734E",
"=. c #956551",
"-. c #9A6353",
";. c #956B52",
":. c #9B6B53",
">. c #9F6559",
",. c #8F7356",
"<. c #947153",
"1. c #9B7154",
"2. c #9D7559",
"3. c #9C7D5A",
"4. c #9A7C57",
"5. c #8A6F52",
"6. c #A36C4B",
"7. c #A46C46",
"8. c #AA7445",
"9. c #AE7B4B",
"0. c #A97548",
"q. c #B37C4D",
"w. c #B2754B",
"e. c #A26955",
"r. c #A37354",
"t. c #AC7452",
"y. c #A57956",
"u. c #AE7A53",
"i. c #A37C5A",
"p. c #AB7D5B",
"a. c #A8755A",
"s. c #B47C52",
"d. c #BA7C53",
"f. c #B47D5B",
"g. c #B77956",
"h. c #A64D61",
"j. c #A95860",
"k. c #B55360",
"l. c #B75260",
"z. c #B65461",
"x. c #B65562",
"c. c #B45663",
"v. c #B85260",
"b. c #B95361",
"n. c #B85361",
"m. c #B95162",
"M. c #BA5462",
"N. c #BB5563",
"B. c #BA5661",
"V. c #BC5363",
"C. c #BA5A64",
"Z. c #BB5B67",
"A. c #B14E60",
"S. c #A36764",
"D. c #A87C65",
"F. c #B37E64",
"G. c #B87974",
"H. c #C25767",
"J. c #9F835E",
"K. c #B5814E",
"L. c #A4825D",
"P. c #A9845B",
"I. c #B68254",
"U. c #BA8555",
"Y. c #BD8A56",
"T. c #BB835C",
"R. c #BE8B5B",
"E. c #B5865C",
"W. c #9F8260",
"Q. c #A68361",
"!. c #AB8463",
"~. c #AC8B64",
"^. c #AD8C6B",
"/. c #A78767",
"(. c #B38464",
"). c #BC8663",
"_. c #B38966",
"`. c #BC8B62",
"'. c #B38D6A",
"]. c #BC8D6B",
"[. c #B88569",
"{. c #AF9064",
"}. c #AD916C",
"|. c #B19266",
" X c #BD9265",
".X c #B4926C",
"XX c #BA936D",
"oX c #BB9A6D",
"OX c #B7986A",
"+X c #BD8D76",
"@X c #BD8D79",
"#X c #B38673",
"$X c #B59572",
"%X c #BB9672",
"&X c #B69873",
"*X c #BC9B74",
"=X c #BB967B",
"-X c #BE9D79",
";X c #B69778",
":X c #AE9173",
">X c #BEA17A",
",X c #BFA174",
"<X c #C18D5C",
"1X c #C08857",
"2X c #C4915E",
"3X c #C28D64",
"4X c #C08769",
"5X c #C59564",
"6X c #C99565",
"7X c #C69867",
"8X c #C99967",
"9X c #C4946A",
"0X c #C59B6B",
"qX c #CA9C6B",
"wX c #CA9669",
"eX c #D09C6E",
"rX c #C19C74",
"tX c #CA9E72",
"yX c #C29C7B",
"uX c #C69778",
"iX c #CDA16E",
"pX c #C6A06F",
"aX c #C1A173",
"sX c #CDA274",
"dX c #C2A27B",
"fX c #CDA57C",
"gX c #CEA97E",
"hX c #C7A97D",
"jX c #D1A474",
"kX c #D2A57B",
"lX c #D4AA7D",
"zX c #D4AA76",
"xX c #D0A06F",
"cX c #BB9780",
"vX c #CC9D83",
"bX c #C38A83",
"nX c #C4A481",
"mX c #C5AB83",
"MX c #CBAC84",
"NX c #CCA785",
"BX c #D4AC82",
"VX c #D3AC8C",
"CX c #D4A788",
"ZX c #D9B187",
"AX c #D7A991",
"SX c #CEB189",
/* pixels */
"} } k.z.z.z.z.k.v.v.v.v.v.v.v.v.M.M.M.M.M.M.M.M.v.v.v.v.v.v.v.v.M.M.M.M.M.M.M.M.M.M.M.M.M.M.M.M.v.v.v.v.v.M.M.v.v.v.M.v.v.v.M.M.",
"} } k.z.z.z.z.k.v.v.v.v.v.v.v.v.M.M.M.M.M.M.M.M.v.v.v.v.v.v.v.v.M.M.M.M.M.M.M.M.M.M.M.M.M.M.M.M.v.v.v.v.v.v.v.v.v.v.M.v.v.v.v.v.",
"} } k.z.z.z.z.k.v.v.v.v.v.M.M.v.M.M.M.M.M.M.M.M.v.v.v.v.v.v.v.v.M.M.M.M.M.M.M.M.M.M.M.M.M.M.M.M.v.v.v.v.v.v.v.v.v.v.v.v.v.v.v.v.",
"} } k.z.z.z.z.k.M.v.v.v.v.M.v.v.v.v.v.v.v.v.v.v.v.v.v.v.v.v.v.v.M.M.M.M.M.M.M.M.M.M.M.M.M.M.M.M.v.v.v.v.v.v.v.v.v.v.v.v.v.v.v.v.",
"} } k.z.z.z.z.k.v.v.v.v.v.v.v.v.v.v.v.v.v.v.v.v.v.v.v.v.v.v.v.v.M.M.M.M.M.M.M.M.M.M.M.M.M.M.M.M.v.v.v.v.v.v.v.M.M.M.v.v.v.M.v.v.",
"} } k.z.z.z.z.k.v.v.v.v.v.v.v.v.v.v.v.v.v.v.v.v.v.v.v.M.M.v.v.v.M.M.M.M.M.M.M.M.v.v.v.v.v.v.v.v.v.M.M.v.v.v.v.M.v.v.v.v.v.v.v.v.",
"} } k.z.z.z.z.k.v.v.v.v.v.v.v.v.v.v.v.v.v.v.v.v.v.v.M.M.v.v.v.v.M.M.M.M.M.M.M.M.v.v.v.v.v.v.v.v.v.v.v.v.v.v.v.v.v.v.v.v.v.v.v.v.",
"} } k.z.z.z.z.k.v.v.v.v.v.v.v.v.v.v.v.v.v.v.v.v.v.v.v.v.v.v.v.v.M.M.M.M.M.M.M.M.v.v.v.v.v.v.v.v.v.v.v.v.v.v.v.v.v.v.v.v.v.v.v.v.",
"} k.z.z.z.z.z.z.} } } } } } } } } } } k.k.z.z.z.c.c.c.c.z.v.} _ _ _ _ | N.H.H.V.k.k.k.k.k.k.k.k.v.v.v.v.v.v.v.v.v.v.v.v.v.v.v.v.",
"} k.z.z.z.z.z.z.} } } } } } } } } } } k.k.z.z.z.c.z.c.z.k.k.| | z.Z.Z.C._ ( } Z.k.k.k.k.k.k.k.k.v.v.v.v.v.v.v.v.v.v.v.v.v.M.v.v.",
"} } k.z.z.z.z.z.| | } } } } | } } } k.k.k.k.z.z.v.v.k.} } | | B.Z.Z.k.} } k.k.k.k.k.k.k.k.k.k.k.v.v.v.v.v.v.v.v.v.v.v.v.M.M.v.v.",
"} } k.z.z.z.z.k.v.v.v.v.v.v.v.v.k.k.k.k.k.k.k.k.V.v.` _ } } | M.C.} ( } z.C.z.[ k.k.k.k.k.k.k.k.v.v.v.v.v.v.v.v.v.v.v.v.v.v.v.v.",
"} } k.k.z.z.k.k.v.v.v.v.v.v.v.v.k.k.k.k.k.k.k.k.v.} } } [ [ [ [ ^ | C.C.} _ } | k.k.k.k.k.k.k.k.v.v.v.v.v.v.v.v.v.v.v.v.v.v.v.v.",
"} } } k.k.k.k.k.v.v.v.v.v.v.v.v.z.z.k.k.k.k.} } [ [ [ [ ] W I D Z D R ~ [ } | C.k.k.k.k.k.k.k.k.v.v.v.v.v.v.v.v.v.v.v.v.v.v.v.v.",
"} } } k.k.k.k.} v.v.v.v.v.v.v.v.z.z.z.k.k.} } } ~ ] ] ' W A S d 8 7 6 9 S ' { [ k.k.k.k.k.k.k.k.v.v.v.v.v.v.v.v.v.v.v.v.v.v.v.v.",
"} } } k.k.k.k.} v.v.v.v.v.v.v.v.z.z.z.k.k.} } } R ! ' Q I G d 8 # # # $ 6 9 D ' k.k.k.k.k.k.k.k.v.v.v.v.v.v.v.v.v.v.v.v.M.v.v.v.",
"( ( } } k.v.v.v.v.v.v.k.k.v.| | [ } } } _ ^ ' ] e.>.-.L p 7 = O ; ; = = $ > 1 6 ! [ } _ _ Z.Z.[ v.v.v.v.v.v.v.v.v.v.v.v.v.v.v.v.",
"( ( _ } k.k.v.} v.k.k.k.} } } } } } } _ ( ' ] ' Q -.U c t > & & % % & = : : > > S D ~ } v.M.z.[ v.v.v.v.v.v.v.v.v.v.v.v.v.v.v.v.",
"( ( ( } } } } } } } } } } } } } v.} _ ( ' ' Q Q Y L G p > O O & % % + & = = = : 6 9 D [ C.} _ } v.v.v.v.v.v.v.v.v.v.v.v.v.v.v.v.",
"^ ^ ( } } } _ _ } } } } } _ _ _ V._ ( ~ ' Q Q =.H c p 7 & O O & + + % % % % * * # 1 9 W  .} _ v.v.v.v.v.v.v.v.v.| | } } } } | | ",
") ^ / ( _ _ _ _ } } } ( ( ( ( ( v._ ) ' Q -.#.L H d 7 : & & & & & & % % % % % % = + 1 x '  .} V.v.v.v.v.v.v.v.v.| } } } } } } } ",
") ) ^ / _ _ _ ( [ [ ( ( / / ( ( _ ^ ~ W Q -.#.J G i > % % = & + & & & % % % % % = O # 8 Z [ z.v.} } } } } } } } } } } } } } } } ",
"~ ) ) ^ ( ( ( ( ( / / / / / / ^ ^ ~ R W >.-.K m d t : % % % & & * * & & & O & & * % + 1 d ! A.A._ _ _ _ _ _ _ _ _ _ _ _ _ _ _ _ ",
"~ ~ ) ^ / ( ( ^ / / / / / ^ ^ ^ ) E D Q >.-.K a p t , %   % & : * * * & O O & & % % = $ 9 D [ ( _ _ _ _ _ _ _ _ _ _ _ _ _ _ _ _ ",
"F F F ~ ~ ~ ~ ~ ~ ~ / / / h.h.h./ ] ! >.U #.c x 3 2 = O O % = - & & & & & & & & % % O @ 1 D [ } / ( ( ( _ _ } } } } } } } } } } ",
"R R R / / / / / / / / ~ ~ E E E E R I -.U #.c a 2 : = O O % * * & & & & & & & & * - % @ $ Z ] ) } } } } _ ( ^ ^ _ _ _ _ _ _ } } ",
"T T T T T T T T ~ ~ R R R R ~ ~ A Z P -.U o.c p = = = & % % % % & & & & & & & & % - & @ $ A { / ( _ } } _ _ _ ^ _ _ _ _ _ _ _ _ ",
"S.S.S.S.S.S.S.S.Q W I D Z Z Z Z D Z I -.#.L c t + & = & * & % % & & & & & & & & % * % = # 9 A R ) ) / } } } _ _ _ _ _ _ _ _ _ _ ",
"@X@X+X+X+X+X+X+XuX@X@X@X#X#X#X#Xe.U -.:.#.K g 4 O + = = * & % X & & & & & & & & X % % , @ 8 Z { ~ ~ ~ / / / / ^ ( ( ( ( _ ( _ _ ",
"XXXXXXXXXXXXXXXX$X=X=X=X=XcX=XcXD.=.:.:.L G s 1 O O & & = * % % & & & & * * & & X X X , @ 8 Z { R R R R ~ ~ ~ / ^ ^ ^ / / / / / ",
"i.i.i.i.L.!.!.!.Q.!.^.'.^./.D.3.#X;.:.#.J l s @ O + & & & & * & & & * * * * & & o & X O + d P D ! W T D F R R ' ~ ~ ~ ~ ~ ) ~ ~ ",
"X.o.o.o.;.;.;.1.%.1.p.!.(.!.D.a.:X$.#.#.c g l @ + + & & % & * * & & * * & * & * . * % * t D.bXG.S.j.W D S S A A R R R R R R R R ",
"p f f y y f b ..o.o.o.o.=.;.;.;.$...1.#.K g i = % % % = * = = = = = = = = = = = = = * . O.nXSXhXVXAXAXVXCXvXyXuXD.D.=.=.L x x d ",
"$.2.i.2.1.<.$.$.X.X.o.o.o.o.o.o.$...:.L G s t O % % % = * = = = = = = = = = = = * = * O O.$X*X.X%XyXyXNXNXNXNXNXCXAXCXAXAXvXvXuX",
"!..X*X%XXX.X~.!.Q.Q.L.L.L.i.i.i.$.X.:.L G s 3 O % % = = * = = = = = = = = = = = X % = , ,.;X%X%X.X.XXXOXOX.X.X'.%XyX=XyXvXvXCXNX",
"|.oX*XoXOXoXrXrX*X*X%X%XXX.X.X.X;.O.;.K c s 4 # * * = = = = = = = = = = = = = = % = * = O.Q.i.~.~.{.|.|.|.|.|.|.'.'.'..X*XyXdXnX",
"|.OXoXOXOXoXaX,XdXaX*X*X%XoXOXXX;.;.;.K G s 4 = = = = = = = - - = = - - - - - - = - * = j 4.3.'.{.{.|.|.|.|.|.|..X.X%X*X*X*X%X%X",
"L.|.oXaXaXaXaXoXdXdXdXdXaX*X*X*X1.2.=.K g s 4 ; - - - - - - - - - - - - - - - - = - - = i 3.~.*X*X*X%X%XOX%X*X*X.X'..X.X'..X!.~.",
"4.P.OXOXOX*X,X*X*X*X*X*X*X*X%X%X1.2.=.H g s = ; - - - - - , , , - , , , , - , , = , 2 = < <.!.!.i.i.i.i.L.P.~._.rXXX%X'.'.$X.X&X",
"~.{.~.L.L.P.|.OX&X&X%X%X%X%X%X%X;.2.#.G d s @ @ - - , , 2 2 2 2 2 2 2 2 2 2 2 2 % - w 2 3 3.XX.X9XXX'._.!.P.P.P.i.r.!.L.Q.~.L.Q.",
"SXSXMXMXnX>X*X&X~.!.L.L.J.Q.^.}...1.@.c p i i ; w 2 2 , , q q q < , , , , , , 2 e - 2 5 = 3.nXnX%X*X*X>X*X%XXX.X.X'.~.!.L.i.4.4.",
"OX*XrXdXhXhXhXhXVXVXSXMXnX*X$X^.h $.#.U G s i ; 2 w w q , , , * 0 0 0 0 , , , , w - w - = ,.=X-XdX-X*X%X%X*XdXhX%X%XXXXX.X.X~.~.",
"OXXXoXoXoXoXoXoX%X*XdXdXdX-X$X.XJ ;.;.#.K g i 2 : , < e e e 0 0 0 0 0 0 e e e e e w r 2 & 5.$X*XmXhX>X*X%X*X*X>X*X*X*X*X*X*X*X*X",
"y.y.i.p.P.!.!.~._._.XX%X%X.X'.^.J =.L H l p i 4 < < t t t u u u e t t t t t r r 0 e r w , ,.;XyX*X*X*X*X*X-X>X>X*X>X-X-X-X*X*X*X",
"L L L L #.=.:.:.y.p.(._._._.!.D.L #.L K G d p 7 f f f f f f h b b b h h f u t t < e r 2 e 4.*XhXdXdX>X*X*X*X>XdXdXdXdX>X*X*X%X%X",
"U Y H H G G G H M n N +.%.%.:.:.G K c c c p a p X.X.@.@.@.@.@.@.@.@.@.@.O...h f u u i w r 4.}.XX*X*XdXdXdXdXdX*X>X>X>X>X*X*X*X%X",
"e.6.6.&.&.%.e.r.6.&.+.M v v v v y y y a f a v n $.*.r.i.p.y.y.*.N +.@.%.%.%.$.#.b h k t k /..X.X~.}.XX%X*X*X*X*X*X*X*X*X>X>X>X>X",
"T.T.f.f.f.T.).3Xf.f.u.t.&.Y c a y a c $.r.%.r.r.r.y.(.]._.P.r.@.n M &.%.%.%.#.+...J j k z >XmXmXnXdXXX!.L.3.3.L..X.X&X%X*X>X>X>X",
"E.E.`. X X X X`. X`.p.t.6.t.t.g.d.w.7.V V 7.8.w.T.T.f.t.7.N N &.f.f.g.t.t.6.6.6.:.K c X.L.;XmXMXdXdXnXnXmXmXmXmX.X}.L.3.3.W.^.:X",
"9X9X9X9X X X`.E.I.I.u.s.s.g.d.f.d.w.w.8.8.w.s.I.t.0.7.7.0.t.s.t.T.f.f.f.f.g.t.t.a.e.1.i.'.-X>X>XdXdX>XdXdXmXmXmXMXMXSXMXmX>X;X$X",
"0X0X0X0X0X0X7X X5X5XR.U.I.s.s.q.d.d.q.q.q.q.q.q.0.0.0.9.I.T.I.s.).).).).).).).).F.F.(.[.].%X%X*XyX-X-X-X*X*X*X*X*X,XdXmXMXmXmXdX",
"0X0XpXsXsXaXaXpX5X2X<XY.Y.Y.1X1Xq.q.q.s.s.s.s.q.I.R.6X6X<XR.U.U.).).3X3X3X9X9X9X4X[.).F.y.p._.%X'.'..X$X$X%X*X-XrX*X%XoX%XaXdXhX",
"0X0XiXsXiXiXpX0XY.Y.1X1XY.U.K.q.8.8.q.I.Y.<X<X<X<X6X8X8X2X<X2X6X).`.3X3X5X7X7XwX3X4X).f.6.%.%.r.D.D.!.!.^.^.'..X%X*X*X*XrXrXrXrX",
"7X7X0X0X0X0X7X7X2X2XY.K.9.C B B q.I.Y.<X5X8X8X8X8X5X<X5X8X8X5X<X`.3X5X5X5X7X7X7X).3X9X).y.&.n v +.@.#.#.$.;.1.1.2.i.!..X%XrX*X%X",
"5X5X5X5X5X5XR.R.I.q.9.8.8.9.K.U.2X6X6X5X6X5X5X5XqX8X5X8XwX8X3XR.5X5X5XqXqXqXqXqX5X7XqX9X`.y.%.%.c v c v J K X.X.;.;.1.2.i.!.!._.",
"qXqX8X5XR.I.q.9.B B C 8.K.<X8XeX6X6X6X5X5X5X6X5XeXeXqX6X3X3X6XeXqXqXqXqXqXqXqXqXqXqX0X9X9X].].].[.F.a.:.K c p y G g g c J #.1.i.",
"R.R.U.I.q.0.B N U.R.<X5X8X8X8X5X5X5X6X6X8X8X8X8X8X8X8X5X8X8X8X8XjXiX0XqXqX0XqXiXkXsXtXtXtXtX0X XrX9X9X].`.E.f.u.Y H m x x m v H ",
"I.9.0.8.8.9.U.R.R.<X5X8X8X8X5X5X5X5X5X8X8X8X8X8X5X5X5X5X8X8XqXqX0X0X0X0XqXiXjXjXtXtXsXsXsXsXsXsXkXfXfXtXrX9X9X].[.[.F.a.%.+.v c ",
"8.0.9.q.U.2X8XqX5X5X8X8X8X8X8X5X8X8X8XqXqXqXqXqX8X8X8X8XqXqXqXqXqX0XiXjXjXjXjXjX0XtXkXkXkXkXBXZXBXBXBXBXkXkXkXtXtXuXuX9X].(.(.f.",
"9.I.5XqXjXqXqX5XqXqXqXqXqX8X5X5XqXqXqX0X0X0X0X0XqXqXqXqX0X0XqXiX0XqXsXjXjXjXsXsXtXsXkXlXlXBXZXZXBXBXBXBXBXlXlXlXlXkXsXtXtXtX9X9X",
"5X5XqXqXxXqXqX5XqXqXqXqXqX8XqXqX0X0XqXqXqXqX0X0XqXqXqX0X0XiXxXxXjXjXjXjXjXsXqX0XgXfXfXlXBXBXBXlXfXgXlXlXlXlXlXlXjXkXkXlXkXjXqX7X",
"qX0X7X5X5X7XqX0X0XqXqX7X7XqX0X0XqXqXqXqXqXqX0X0X0X0XqXiXiXsXjXjXlXlXlXjXsXsX0X0XBXBXgXBXBXBXgXfXgXlXlXBXBXBXlXlXsXjXjXjXjXjXjXsX",
"qXqX5X5X5X5X7XqX7X7X5X5X5XqXqXiXqXqXqXqXqX0X0X0XiXiXsXsXjXzXzXzXlXlXkXjXsXsXsXsXBXBXBXBXBXMXgXfXBXBXBXBXBXBXlXlXZXBXkXsXtXtXsXjX",
"qX0X0XqX7X5X5X5X5X5X5X5X5XqXiXjXiXqXqXqX0X0X0X0XsXsXjXjXzXzXzXlXlXlXkXsXsXsXkXlXgXBXZXBXMXgXMXBXlXlXlXlXlXlXkXkXlXlXkXkXsXsXsXkX"
};
