/* XPM */
static char *f1083937624b42a192f992f9d5ab6beefoSJR8l2k5TfMIgE[] = {
/* columns rows colors chars-per-pixel */
"64 64 165 2 ",
"   c #CC9665",
".  c #CF966B",
"X  c #D0976C",
"o  c #D39A6E",
"O  c #D89F6F",
"+  c #D49C70",
"@  c #D6A06C",
"#  c #DAA36D",
"$  c #D6A172",
"%  c #DBA575",
"&  c #DEA976",
"*  c #DDA678",
"=  c #DEAA79",
"-  c #E0A777",
";  c #E3AC75",
":  c #E0A779",
">  c #E1AC7A",
",  c #E7B077",
"<  c #E8B177",
"1  c #E5B17D",
"2  c #E9B27A",
"3  c #DFAF81",
"4  c #DFB082",
"5  c #E2AF80",
"6  c #E5B383",
"7  c #E9B684",
"8  c #E6B887",
"9  c #EBBA86",
"0  c #E7B789",
"q  c #E7B989",
"w  c #EFBE89",
"e  c #EFBE88",
"r  c #EEBC8A",
"t  c #EEBC8B",
"y  c #EFBC8B",
"u  c #EEBD8B",
"i  c #EFBD8B",
"p  c #EEBE8A",
"a  c #EFBD89",
"s  c #EFBD8C",
"d  c #EDBF8F",
"f  c #EDBC89",
"g  c #F1BF84",
"h  c #F0BE89",
"j  c #F1BE89",
"k  c #F1BF89",
"l  c #F0BE8A",
"z  c #F1BF8A",
"x  c #F0BF8B",
"c  c #F1BF8B",
"v  c #F2BF8B",
"b  c #F0BD8C",
"n  c #F0BE8C",
"m  c #F0BF8C",
"M  c #F0BE8D",
"N  c #F0BF8D",
"B  c #F1BF8D",
"V  c #F0BE8A",
"C  c #EDBF90",
"Z  c #EEC08F",
"A  c #EFC18F",
"S  c #F3C58C",
"D  c #F2C48F",
"F  c #F2C08B",
"G  c #EEC190",
"H  c #EDC290",
"J  c #EEC191",
"K  c #F0C291",
"L  c #F1C392",
"P  c #F3C591",
"I  c #F1C493",
"U  c #F2C592",
"Y  c #F2C493",
"T  c #F2C593",
"R  c #F3C792",
"E  c #F3C693",
"W  c #F4C592",
"Q  c #F4C593",
"!  c #F3C595",
"~  c #F3C694",
"^  c #F3C695",
"/  c #F3C696",
"(  c #F4C694",
")  c #F5C694",
"_  c #F5C795",
"`  c #F4C796",
"'  c #F5C796",
"]  c #F2C494",
"[  c #F4C893",
"{  c #F4C993",
"}  c #F5C993",
"|  c #F5CA93",
" . c #F5C894",
".. c #F4C994",
"X. c #F5C994",
"o. c #F6C994",
"O. c #F6C995",
"+. c #F7C995",
"@. c #F5CA94",
"#. c #F5CB94",
"$. c #F5CA95",
"%. c #F5CB95",
"&. c #F7CA94",
"*. c #F6CA95",
"=. c #F7CA95",
"-. c #F7CB95",
";. c #F5C896",
":. c #F6C996",
">. c #F5CA96",
",. c #F5CB96",
"<. c #F5CB97",
"1. c #F6CA96",
"2. c #F7CA96",
"3. c #F6CB96",
"4. c #F6CB97",
"5. c #F7CB97",
"6. c #F6CC96",
"7. c #F6CC97",
"8. c #F7CC97",
"9. c #F4C996",
"0. c #F8CB97",
"q. c #F8CC97",
"w. c #F9CD97",
"e. c #F8CC97",
"r. c #F5C798",
"t. c #F6C999",
"y. c #F7CA98",
"u. c #F6CB98",
"i. c #F7CB98",
"p. c #F7CB99",
"a. c #F6CC98",
"s. c #F7CC98",
"d. c #F6CD98",
"f. c #F7CD98",
"g. c #F6CC99",
"h. c #F7CC99",
"j. c #F7CD99",
"k. c #F7CC9A",
"l. c #F6CB9A",
"z. c #F8CB98",
"x. c #F8CB99",
"c. c #F8CC98",
"v. c #F8CC99",
"b. c #F8CD99",
"n. c #F8CC9A",
"m. c #F9CC9A",
"M. c #F8CD9A",
"N. c #F9CD9B",
"B. c #F9CE9A",
"V. c #F9CF9A",
"C. c #F8CE9B",
"Z. c #F9CE9B",
"A. c #FACF9A",
"S. c #F9CD9D",
"D. c #F9CE9C",
"F. c #F9CE9D",
"G. c #FACF9C",
"H. c #FACE9D",
"J. c #FACF9D",
"K. c #F9CE9D",
"L. c #FBD19D",
"P. c #FBD09E",
"I. c #FBCFA0",
"U. c #FCD0A0",
"Y. c #FCD1A1",
/* pixels */
"N N h N N N h h h w w w w w f > > > > > > > > > > 5 > > > > > > > > > = = > > = = > > > > > = = f 6 7 w N w w w N N N w w d N N ",
"h h h h h h h h h h w w w f f = & & & & & & = = = = = > = > > = > = > > > & > = = ; ; > > > = % 7 h h a f w h h w w w h w w w w ",
"7 7 7 7 7 7 7 7 7 7 7 7 7 7 6 * % % % % % % % % % % % * % % % % % % * * * * * * * % % * * * % $ 7 7 7 1 7 7 7 6 7 7 7 7 7 7 7 7 ",
"` `  . .U ` ^ r.^ i.^  . .` ^ U U L ` L U 6 + o o o o o o o o o o o o o o o o o o o o o o o o o + O + + + % 7 9 e Q Q  .^ ^ ^ ` ",
"L.q.m.s.L.s.m.m.m.H.H.H.m.U.s.H.H.H.H.H.H.q + + + + + + + + + o o + + + + + + o o + + + o o + + + + + + o $ 9 g D q.q. .m.s.H. .",
"q.0.0.m. .m.z.m.s.m.s.s.m.s.H.m.m.m.m.m.m.q + o o o o o o o o o o o o o o o o o o . X X X X X X X X o o o * U m.m.s.s.s. .s.6.s.",
" . . . . . .i.i.i.i. .s.s.s.m.m.i.s.i.m.m.7 o X X X o o o o o o o o o o o o o o o o o o + o o o o o o o o * U 6.s.s.s.6.s. . . .",
"6. . . . . . . . . . . . . . . . . .z.z.6.8 o X X o o o o o o o o o o o o o o o o o o o + o o o o o o o o * D {  . . .6.6. . . .",
"6. . .{ {  .{  . . .{ {  .{  . . . . . . .8 X . . . . . . X X . X X X X X o X . X X X X X X X X X X X X X % U  . . . . .{  . .{ ",
"> > = > > > = = > > > > = > > = = > = > > % . . . . . . + * * * * * * * * * * * * * * = = = = = = = = = = 5 C J J A J J = = > > ",
"+ + o o o o o o + + + o o o o o o o o o o o o o o o o o 4 H.U.I.I.U.U.U.U.U.U.U.U.U.U.U.U.U.U.U.U.U.U.H.H.H.I.U.U.U.U.U.+ + + + ",
"o o o o o o o o o o o o o o o o o o o o o o o o o o o o 3 H.H.H.H.I.H.I.I.I.I.I.I.I.I.I.k.k.k.k.H.I.H.I.I.U.U.U.U.U.U.U.+ o o o ",
"+ + + + + + + o X X o o o o o o o o o + o o o o o o + o 6 I.U.I.I.U.I.I.I.I.I.I.U.I.I.I.U.U.U.U.U.U.U.U.I.I.U.U.U.U.U.U.+ + + + ",
"o X . . X o o o o + o o o o o + + + + + + + + + + + + + 3 H.H.H.H.H.I.I.H.I.I.H.H.H.H.H.H.I.I.H.H.U.U.U.U.Y.Y.Y.U.U.Y.U.+ o o o ",
"o o o o o o X . X . . . X X X X X . X o o o o o o + o o 6 U.U.U.U.U.U.U.U.U.U.U.U.U.U.U.U.U.U.U.U.U.U.U.U.H.i.i.i.i.k.H.+ X X o ",
"o o o o X o X o o o o o o o o o + + + + + + + + + + + + = J L J J J L I L U ^ ^ U U U U I J d q t t d J J J L I ^ ^ I I + + o o ",
"* * * * * * * * * % % % $ $ $ * 6 6 6 1 > > > > > > > 1 6 7 q 7 7 7 7 7 7 7 7 7 7 7 7 7 8 7 6 % = = = = = = > = > > > > * * * * ",
"> > > > > > > > > > > > > = & > f f 7 7 f 7 7 7 7 7 7 f f w f 7 7 w w f f w h h h h h h h h f % & = & & & > > = > > > 1 1 1 > > ",
"> > > > > > > > > > > > > > > > f f w f f w 7 f f 7 7 f w w 7 7 w w f q f w f f f w w h F h 7 = > > > > > > 1 1 1 > > > > > > > ",
"> > > 1 1 > > > > > > > > = & > w w w w w w w f 7 w w w 7 w w w f h h a h h h w h h h w h h 7 * > > > > > > > > > > > ; > > > > ",
"> > > > > > > > > > > > = = = > f f 7 7 q f f f q q f f f 7 7 7 f w w f f f w w w f w w w w 7 * > > > > > > > > > > > > > > > > ",
"1 1 1 > > > > > > > > > = & & > w w f f w w w w w w w w w w w w w a f f f f f f w w h h w w f & 1 1 6 6 6 1 1 1 6 6 6 6 1 > 1 > ",
"$ $ * q q q q q q q q q q q q q d d t f f q q f f f f t d d d f t t > $ $ $ $ $ $ $ $ $ $ $ $ O O O O O @ O O O O @ @ @ O O O O ",
"% % 6 H.U.U.U.U.U.L.I.H.H.H.H.H.H.I.I.I.U.U.U.U.U.U.I.I.I.H.H.H.I.I.0 $ % % % % % $ $ % % % $ $ $ % $ % % % % % % % % $ $ $ $ $ ",
"= > 8 H.U.U.U.I.U.H.H.H.H.H.H.H.H.H.I.I.U.U.U.U.U.U.U.U.U.U.U.U.U.U.q = > > > > > > > > > > > > > > > > > > > > > > > > > > > > ",
"= = 8 H.U.U.U.I.U.U.U.U.I.I.I.I.H.H.H.H.H.H.H.H.H.H.H.H.I.I.U.U.U.U.q & > > > > > : : > > = & & = = * * * * * * = = = = > > > > ",
"= > 8 H.U.U.U.U.U.U.U.U.U.U.U.I.I.H.H.k.k.i.i.i.i.i.i.i.i.i.k.k.H.H.8 $ * * * > > : > > > > * * * % * = = = > > > > > > > > > > ",
"= > 8 H.U.U.U.U.U.U.U.U.U.U.U.U.U.U.U.U.U.U.U.U.U.U.Y.Y.Y.Y.Y.Y.U.U.d = > > > > > > > > > > ; ; > > > > > = = * * * * * - - - > ",
"% % > C J J L L J U Q ` ` ` ` ` i.i.i.z.z.i.i.i.z.i. .^ L I ^ ^ ^ ` 8 % * * * > : > > > > > > > > > = * * $ $ $ $ $ $ $ $ $ % % ",
"& > = = > > = > @ ; ; ; ; ; ; ; ; ; ; ; ; ; ; ; ; ; ; ; ; ; ; ; ; ; ; ; ; ; ; ; ; > > > > = > > > = & = > > > = = & ; & > > > > ",
"> > > > > > > > @ ; ; ; ; ; ; ; ; ; ; ; ; ; ; ; ; ; ; ; ; ; ; ; ; 2 2 2 2 2 2 2 ; > > > > > > > > > > > > > > > > > > > > > > > ",
"& * * * * * * * o ; ; ; ; ; ; ; ; ; ; ; ; ; ; ; ; ; ; ; ; ; ; ; , , , , , ; ; ; ; & * - & * & * * * * * * * * * * * * * * * * * ",
"& > > ; & * * & o ; ; ; ; ; ; ; ; ; ; 2 2 2 2 2 2 2 2 2 2 2 2 2 2 2 2 2 2 2 2 2 ; 2 1 1 1 1 1 1 2 1 1 > > > > > ; > > > > > ; ; ",
"> > > > > > > > @ ; ; ; ; ; ; ; ; ; ; ; ; ; ; ; ; < < 2 2 2 2 < 2 2 2 2 2 2 2 2 ; > > > > > > > > > > > > > > > > > > > > > > > ",
"O @ O O O O O O   @ @ @ @ @ @ @ @ @ @ @ @ @ @ @ @ # # # # # # # # # # # # # % & @ O @ $ $ $ @ @ @ @ O O O O O O O O O O O O O O ",
"6 7 6 1 6 7 6 1 1 7 1 7 7 1 1 7 1 7 7 1 1 7 7 1 1 7 7 7 o * * * * * * * * * & & % % % % % $ % % % % % % % % * * * * % % = 6 > 1 ",
"h h h a h h h h h h h h F h f h w f 7 h w w h w w w h w o = * * * % $ $ % % % % % % % % * * * % % % * * * * > > > > & & > h w q ",
"w 7 7 f h N f f f w w h h h a a w f f w f f w h h f w f X % * * > > = = = = > > = > > = > > > > & & & ; * * ; ; = = = ; & 8 f h ",
"w w w w f f w w f h w 7 7 f 7 w h f f w w w w w f f f h X * * * * * * * * * * = * > & = > > ; ; * * * * * * * * % * * * > f f w ",
"w f f f f f w f a w h w h h h h w f w h f w h h h h h h X % % % % $ % % % % * * = > > > > > ; ; * * * * * * * * * * * * > h h h ",
"h h w w w f 7 7 f w w h h h w f 7 f w h h h a w h a h h X % % % % $ $ $ $ $ $ $ % * * = = > : * * * * % % % % $ $ $ $ $ = f f w ",
"8 8 q q q q q q 6 $ % % % % % % % % % $ + % % % % % % $ . o o o X o o o o o o o o 6 6 6 5 5 6 6 > 6 6 6 5 6 6 6 6 6 6 6 6 8 8 8 ",
"U.L.H.H.U.U.H.U.J + o o o o o o + + + o o o o o X . . . . . . X X X o o o o o o o z.H.U.H.k.k.I.I.k.H.L.L.H.i.H.U.H.k.z.U.L.H.H.",
"L.H.H.L.L.H.U.L.J o o o o o o o + + + + + + + + o o o o o o o o o X o o o o o o o H.H.i.i.z.H.H.H.H.H.i.i.m.H.H.i.k.H.H.H.H.H.H.",
"L.H.L.L.L.L.U.L.C o + + + + + + + + + + + + + + o + o + + o o o o o o o o o o o o ^ ^ ^ ^ `  .i.m.s.i. . .i.m.i.i.s.H.H.H.H.m.H.",
"H.m.H.H.L.H.L.U.C X X o o o o o o o o o o o o o o o o o o o o o o o o o o o o X . ^ ^ ^ ^ ^ ^ ^  .i.i.m.H.i.i. .i.H.m.s.m.H.m.m.",
"H.m.H.H.m.H.H.L.t + + + + o o + o + + o o o o + o o o + o o o o o o o o o o o o o i.i.i.i.i.i. ...^ ^ i.i.H.s...i.H.s. .s.H.i.s.",
"U L ` U Q ` Q U 7 o O O O O O O O O o o o o o o o X X o . o o o o o o o o o o o o L L U L I ^ ^ ^ I L J L ^ ` L U ` ` L U U U  .",
"2 2 1 2 1 1 1 2 2 ; ; ; ; ; ; ; ; ; ; ; ; ; ; & % % % % $ 6 1 1 1 6 6 6 6 6 6 6 6 7 7 7 7 7 q q q f f 7 7 f f f w w w f ; 2 2 1 ",
"2 2 2 2 2 2 2 2 2 2 < , ; ; ; ; ; ; ; ; ; ; & & & & & ; & h h h h h h h h h w w w f f 7 7 f w w w f f 7 7 7 7 7 7 f w w ; 2 2 2 ",
"2 2 2 2 2 2 , , , 2 2 2 , , ; ; ; ; ; ; ; ; ; ; ; ; 2 2 & h h h w w w f f f f h h h h h h w 7 7 f w f 7 f f f w f 7 f f ; 2 2 2 ",
"2 2 2 2 2 2 2 2 2 2 2 , , , ; ; ; ; ; ; ; ; ; ; ; ; ; ; & F h h h h w h h w f f w w f f f w f 7 7 f 7 7 f w w w 7 w w h ; 2 2 2 ",
"; ; ; ; ; ; ; ; ; ; ; ; ; ; ; ; ; ; ; ; ; ; ; ; ; ; ; ; % f f 7 7 7 7 f f f w w w a w w 7 7 7 f f f f w f f w f 7 f f w ; ; ; ; ",
"; ; ; ; ; ; ; ; ; ; ; ; ; 2 2 2 2 2 2 2 2 2 2 , , ; ; ; & w w f w f f f w w w w w w w f f f f f f f f 7 f f f f f w w w ; 2 ; ; ",
"@ @ % 1 6 8 8 8 6 6 8 8 6 8 q 8 8 8 q 8 8 8 q 8 8 7 8 8 8 q q 8 8 8 = + + O @ $ + O o o o o o o o o o o o o o o o o + $ O O @ @ ",
"= = 6 i.L.m.m.H.L.m.m.H.H.L.H.H.U.H.H.L.U.L.L.U.L.U.U.H.U.U.U.H.P.i.q = > > > > > ; ; > > > - ; > > > > & ; > > > > > > > > > > ",
"& = 6  .s.s.H.H.H.m.H.H.H.H.H.H.L.L.H.L.L.L.L.H.U.P.P.U.P.U.U.L.H.q.q * = = > : : > : : * * * * * * * * * * * * * * * - * * % % ",
"* * 6 ..s.m.m.m.m.H.H.H.H.H.H.H.L.L.L.L.L.L.L.U.U.U.U.P.U.U.U.U.H.m.q * * * * * * * * * * * * * * * * * * * * * * % * % % % * * ",
"= = 6  .m.z.z.s.m.m.s.m.m.m.m.H.L.L.H.H.L.L.L.L.L.P.P.P.U.U.U.U.s. .q = > > > > > ; ; > > > > > > ; > > > > > > & & & * = & & & ",
"% % 6 ..m.m.m.z.m.m.s.m.m.s.m.H.m.H.H.H.H.m.m.H.H.H.H.L.L.U.P.U.H. .f > > > > > > > > > = = > = & & & & = = = = = & * * * * * * ",
"& * = f A J A A A A A L J A A w d d d d d A A d d d d A J L L L L d > $ $ $ $ $ $ O O O + + + o $ $ $ + + + $ $ $ $ $ $ % % % % ",
"7 7 7 7 7 7 7 7 7 f f f f f 7 & * * * & & = = > > > > > > > > > > > > > > > 1 1 > > > > > > > = f f f f 7 7 7 f f f 7 7 7 7 7 7 ",
"f f f f f f f f f f f f f f 7 = = = > = > = = > > > > = > > > > > > > > > > > > > > > > > & & = w w f f f f 7 7 7 7 f 7 f f f f ",
"h h h h h w h h w w w w w f f > > > > > > > > > > > > > > > > > > > > > > > > > > > > > > > > * 7 f f 7 6 7 f w a f w a w h h h "
};
