/* XPM */
static char *_915795ab56c419df3eca9d77c8e2480v59LGt6SPJA1rdDJ[] = {
/* columns rows colors chars-per-pixel */
"64 64 256 2 ",
"   c #0A0100",
".  c #170200",
"X  c #131609",
"o  c #2A1508",
"O  c #2A240C",
"+  c #4F1C00",
"@  c #51370B",
"#  c #693308",
"$  c #6A2828",
"%  c #6A4309",
"&  c #754D12",
"*  c #70562B",
"=  c #6D562C",
"-  c #706544",
";  c #695F51",
":  c #854B06",
">  c #945808",
",  c #875B18",
"<  c #935B18",
"1  c #8C570B",
"2  c #986419",
"3  c #8A631C",
"4  c #A56308",
"5  c #A56819",
"6  c #B87517",
"7  c #A97315",
"8  c #845E2C",
"9  c #95562C",
"0  c #975939",
"q  c #8B4F2A",
"w  c #8B6428",
"e  c #966827",
"r  c #8A6A37",
"t  c #976A38",
"y  c #9C7530",
"u  c #A36A28",
"i  c #AB752A",
"p  c #BB7C2C",
"a  c #B57626",
"s  c #A46939",
"d  c #AB7837",
"f  c #B47A33",
"g  c #BB7C33",
"h  c #B47938",
"j  c #B66F2E",
"k  c #C47C1B",
"l  c #C67C18",
"z  c #D17F1B",
"x  c #C17D2A",
"c  c #C57D22",
"v  c #C67E34",
"b  c #924D4F",
"n  c #856B46",
"m  c #94774D",
"M  c #AB7645",
"N  c #B17D45",
"B  c #B17053",
"V  c #AF6B6D",
"C  c #9C6C72",
"Z  c #BB852D",
"A  c #BB8335",
"S  c #BD843C",
"D  c #B8873A",
"F  c #AE823A",
"G  c #BE8416",
"H  c #CC841C",
"J  c #C78419",
"K  c #D4871C",
"L  c #C8850F",
"P  c #C58323",
"I  c #CC8425",
"U  c #CC8A23",
"Y  c #C3842C",
"T  c #CB852B",
"R  c #CD8A2B",
"E  c #C58A2C",
"W  c #D38623",
"Q  c #D38B24",
"!  c #DA8B25",
"~  c #D48B2B",
"^  c #DB8E2B",
"/  c #D58429",
"(  c #DB9325",
")  c #DC932C",
"_  c #D5912C",
"`  c #C48433",
"'  c #CA8633",
"]  c #C48B35",
"[  c #CC8B34",
"{  c #C4853B",
"}  c #C48A3C",
"|  c #CC8B3B",
" . c #C98638",
".. c #D38D33",
"X. c #D68C35",
"o. c #C9933B",
"O. c #D59232",
"+. c #D89438",
"@. c #E29329",
"#. c #E29834",
"$. c #A98348",
"%. c #BB8542",
"&. c #BD824C",
"*. c #B78647",
"=. c #A88755",
"-. c #B68858",
";. c #B39457",
":. c #B59A79",
">. c #AF9167",
",. c #BEA56D",
"<. c #9D8C70",
"1. c #C58B43",
"2. c #CA8B44",
"3. c #C58B4B",
"4. c #C78948",
"5. c #CD924C",
"6. c #C99246",
"7. c #D49347",
"8. c #C38B54",
"9. c #C48A59",
"0. c #CC935B",
"q. c #CD9A5C",
"w. c #C89356",
"e. c #D59B55",
"r. c #D49A5C",
"t. c #D59858",
"y. c #D28F43",
"u. c #D7A35B",
"i. c #CEA15E",
"p. c #E4A45B",
"a. c #C68C67",
"s. c #CC9564",
"d. c #CD956A",
"f. c #CE996C",
"g. c #C79766",
"h. c #D49C65",
"j. c #D1966C",
"k. c #D39B6D",
"l. c #D79A65",
"z. c #CC9675",
"x. c #D19672",
"c. c #D49C72",
"v. c #DA9D75",
"b. c #C48872",
"n. c #DAA364",
"m. c #D5A26C",
"M. c #DBA46D",
"N. c #D8A566",
"B. c #D6A472",
"V. c #DCA674",
"C. c #DDA975",
"Z. c #DBA579",
"A. c #DEAA7A",
"S. c #D5A878",
"D. c #DCB47C",
"F. c #CBA76A",
"G. c #E3AC6D",
"H. c #E4A868",
"J. c #E2AC75",
"K. c #E3AC7A",
"L. c #E6AA77",
"P. c #E5B27D",
"I. c #E9B37C",
"U. c #E9B475",
"Y. c #F4BA7A",
"T. c #E5B06C",
"R. c #E19D5C",
"E. c #ECC17D",
"W. c #C07685",
"Q. c #AFA98B",
"!. c #B5B1A4",
"~. c #AF998B",
"^. c #D89A87",
"/. c #DB9B96",
"(. c #CD8B8D",
"). c #DCA687",
"_. c #D7B786",
"`. c #D4AA88",
"'. c #E2AD82",
"]. c #E6AA85",
"[. c #E5B382",
"{. c #E9B683",
"}. c #E5B885",
"|. c #EBB985",
" X c #ECB58A",
".X c #E5B98A",
"XX c #EDBC8A",
"oX c #E5B58A",
"OX c #F1BD8B",
"+X c #F7BC85",
"@X c #EAA899",
"#X c #EABA94",
"$X c #F3BC93",
"%X c #ED9CAC",
"&X c #D9BAA7",
"*X c #EAA5A8",
"=X c #F1ABAB",
"-X c #F4ABB3",
";X c #FBACBD",
":X c #F8A9B8",
">X c #FCB2BC",
",X c #FDB8B6",
"<X c #E8B0A9",
"1X c #E49F9A",
"2X c #DAC597",
"3X c #DEC283",
"4X c #EEC18C",
"5X c #EEC386",
"6X c #F3C28D",
"7X c #F8C589",
"8X c #EDC495",
"9X c #ECC89B",
"0X c #F3C493",
"qX c #F7CC97",
"wX c #F5CA95",
"eX c #FACB95",
"rX c #F4C699",
"tX c #F9C499",
"yX c #F6CC9B",
"uX c #FACC9B",
"iX c #FAC595",
"pX c #FDD29D",
"aX c #F9D699",
"sX c #ECD196",
"dX c #D6CAB0",
"fX c #FBCEA1",
"gX c #F4C8AD",
"hX c #FCD2A1",
"jX c #FBD9A8",
"kX c #F6DBB5",
"lX c #E9D5B1",
"zX c #FAE3A9",
"xX c #FDECB4",
"cX c #FBEDBC",
"vX c #F7E6B7",
"bX c #FDF1BE",
"nX c #FFF1B4",
"mX c #EDE3B2",
"MX c #FEADC3",
"NX c #F6A8C2",
"BX c #FEB2C4",
"VX c #FFB9C3",
"CX c #FFB6CB",
"ZX c #F8CACC",
"AX c #F9EBC6",
"SX c #FEF3C2",
"DX c #FFFBC5",
"FX c #FEF4CC",
"GX c #FFFCCD",
"HX c #F9EBD5",
"JX c #FFFED3",
"KX c #FEF8D5",
"LX c #EFE2D1",
"PX c #FEFBEA",
"IX c #FDFEFC",
"UX c #F6EEE1",
/* pixels */
"XXXXXXXXXXXXXXXX0XXXXXXX|.OX|.C.A.V.M.I.I.C.K.).K.'.[.K.L.J.J.M.V.{.A.B.J.M.e.H.J.J.J.J.J.J.C.B.{.{.[.OXOX|.7XP.XXXXXXXXXXXXXXXX",
"4X4X4X4X4X4X4X4X0XXXXXXX|.XX|.C.P.P.J.w.r.J.M.I.K.K.V.K.K.{.[.K.{.V.L.P.h.h g | M.J.J.J.J.P.{.{.$XOXXXiXOXOXiX|.XXXXXXXX5X5X5XXX",
"XXXXXXXXXXXXXXXX4XXXXXXX}..X.XA.V.m.*.%.d h T.r.A.V.V.V.V.Z.Z.Z.L.K.OXJ.3.4.y.a 0.N.J.J.V.B.A.A. X X[. X[.P.6X|.XXXXXXXXXXXXXXXX",
"4X4X4X4X6X6X4X4X4XXX6X0X.XXX0X}.v.M s t &.8.u 3.w.h.B.V.k.a.d.v.-.N 9.g.&.%.5.7.d 4.h.M.k.k.s.s.B.B.k.B.k.m.|.{.XXXXXXXXXXXXXXXX",
"qXqXeXeXeXeXeXeXrX0XuXuXrXuXfXrXV b.^.@Xa.9 N &.*.8.q.k.k.k.s.a.m -.=.8 # + + % u h 8.s.j.k.k.h.d.j.s.k.f.m.XXOXqXqXqXqXqXqXqXqX",
"qXqXqXqXqXqXqXqXqXqXuXuXyXfXfX8X/.*XVX*X*X@XB B 3.3.3.3.t.r.4.u % w & % e *.*.%.S 3.0.s.s.j.k.k.d.j.d.k.f.B.rXuXqXqXqXqXqXqXqXyX",
"wXwXwXwXwXwXwXwXwX6XyXyXrXfXrXoX=XVXBXCXMX=X@XB g 2.2.g g } g 5 2 i i u 3 1 2 i g 1.l.k.j.d.s.s.f.c.f.c.f.B.rXuXqXqXqXqXqXqXqXqX",
"wXwXwXwXwXwXwXwXqXwXyXyXyXyX8X`.,X-X:XNXCXVX@X^.: g y.a 5 p | | ~ I Y a i ` p : : u 8.v.v.c.k.k.c.v.c.c.d.c.0XuXqXqXqXqXqXqXqXqX",
"tXtXtXtXtXtXtXtXiXuXiX0XtXfX#X).-X:X;XCXCXMX;XBXb s | Q K l ..6 : 1 # %.> ..~ T ` > 2 N.9.a.).g.d.f.k.d.f.B. XtX8X8XyXuX0XrXuXtX",
"A.A.A.A.A.A.A.A.V.A.V.V.Z.].).z.VX;XMXMXNX;X;X;X).q ` ! H W ~ 6 5 h & %.: T ) W T Y 1 < iX XB.S.'.'.'.A.A.'.XXtX8X8X0X8X_.A.A.Z.",
"f.f.f.f.f.f.f.f.s.d.d.s.f.c.z.b.>X:X;XMX;XMXCX>X,X9 p ~ ! ! W 6 a D @ w : ..#.H ! E i *.M B.hXyXyXuXrX0X0X0XuXuXyXyXyX8XS.f.f.d.",
"k.k.k.k.k.k.k.k.c.c.k.k.c.c.z.b.-X-X;XBXMXBXCX-X*XB j W #.H ~ k 5 *.* n $.o.l @.@.P f & w N jXjXhXhXhXhXhXhXhXhXhXhXjXrXC.f.k.k.",
"k.k.k.k.k.k.k.k.v.c.k.k.c.c.x.d.-X>X>XMX;X;X;X-X-XB j c @.H ) U +.e AXHX:.d O.( K Y e 8 * $.}.yXuXuXuXhXhXhXuXyXhXhXjXrXC.f.c.c.",
"d.d.d.d.d.d.d.d.x.j.j.j.k.x.x.d.-X>X:X:XBX;X:XZXZX0 p I K Q ) U [ d PXIXHXg.a ) H A >.FX= -.[.uXhXhXhXhXhXhXuXyXfXfXhXrXZ.f.k.k.",
"j.j.j.j.j.j.j.j.x.d.j.j.k.j.x.x./.>X:X:XCX%X(.-X*X9 ` W H Q ) H c t LXIXIXlXf E O.d &XPX2X$.A.uXuXfXfXuXuXuXuXuXuXuXfX0XZ.f.k.j.",
"k.k.k.k.j.j.j.j.x.x.j.k.c.c.x.x.(.>X>X;XBXW.b V b s | ! K H #.H / *.LXIXIXAX&.` ] r dXPXHXr g.$X0X0X0X0X0X0XrXrXrXrXtX$XZ.f.k.j.",
"V.K.K.K.V.K.K.K.C.V.V.V.V.V.V.V.^.=X:X:XMXBX(.B 0 9 ' I @.W W K P D m PXIXdX;.{ R d :.UXHXm S.m.J.P.P.J.A.A.J.P.K.K.K.K.K.K.K.K.",
"K.K.P.K.K.K.K.K.J.J.A.A.A.A.A.A.]./.*XBXCX;X-X-Xq &.` I W / ^ ) U o.r HX!.o t 1.~ *.- ; HXn _.B.B.V.V.V.B.B.V.V.K.K.K.K.K.K.K.K.",
"K.K.K.J.J.K.J.K.K.K.K.K.K.A.A.A.$X)./.-XBX:X:XZX# 8.` ~ W ! ~ R K a *.:.C   % i T %.@ o lXn .XC.K.P.[.P.P.K.P.[.K.K.K.K.K.K.K.K.",
"K.J.J.K.K.K.J.K.K.K.K.K.K.K.K.K.0X X).1X-XBX;X%X$ M p 6 4 k I ..K O.u m <.  & q.| w.* o >.>.0XI.C.A.A.A.A.C.A.J.K.K.K.K.K.K.K.K.",
"[.K.K.P.P.J.J.K.K.K.K.A.A.A.A.A.}.#XoX^.@X,XVX:XV 9 7._ l 6 4 > 4 6 u t :.= * =.u $.= @ r $.V.w.A.K.K.P.K.K.K.K.K.K.K.K.K.K.K.I.",
"K.A.A.[.{.K.A.J.A.A.A.A.A.A.A.A.}.XX#X).^./.-XVX(.# g P J R ' | A u %.8 m AXlXjX# = = :.`., N w.K.K.P.[.P.P.P.[.K.K.K.K.K.K.K.K.",
"V.B.A.|.6XXX|.XX.X.X.X.XoX.XoXoX0X0X0X#X).^./.=X<Xt { +.~ R 4 > , , & w m dXKXSXn O X Q.9Xe : : s.k.k.k.k.k.k.k.V.V.V.V.V.V.V.V.",
"V.B.K.0XpXuXuXhXhXhXhXfXuXuXuXuXfXrXrXhXjXgX<X/./.B 5 P U +.7 5 ;.$.& @ m KXKXAXHX!.Q.lX>.*.%.w.M.B.V.K.J.L.L.L.V.V.V.V.V.V.V.V.",
"K.Z.'.yXjXhXyXhXhXhXhXuXuXuXhXhXfXfXfXfXfXfXfXfXrX0XT.6.Z Z Z 7 xXvXO   X ; !.~.@ - - & S [  .S K.K.K.K.J.K.K.K.L.L.L.L.J.L.V.V.",
"A.Z.'.uXjXhXyXhXhXhXhXhXhXhXhXhXyXyXfXfXyXyXyXyXuXpX7Xn.1.%.%.d SXkX- O . . .   - lXHX=.h a { G.K.K.K.K.K.K.J.K.J.J.K.K.K.K.K.K.",
"A.Z.[.uXjXhXpXhXhXhXhXhXhXhXhXhXfXfXfXfXfXfXuXfXrXhXpX7XM.-.M t _.JX&Xb V $ . X lXFXlX=.N 5.H.q.K.K.K.K.K.K.K.K.K.K.K.K.K.K.K.K.",
"V.V.'.rXuXuXyXuXrXeXeXuXuXuXuXuXuXuXuXuXuXuXuXuXjXhXpXaXeXq., + * vXHXV V b . Q.cXlX>.m C.U.V.OXV.V.V.V.V.V.V.V.V.V.V.V.V.V.V.V.",
"B.B.C.{..X}.{.}.{.{.{.|.{.{.{.{.|.|.|.|.|.|.|.|._.}.U.u.} a Z 7.s * Q.&Xb $ :.2X=.r y w.s.g.g.B.B.B.B.B.B.B.B.B.V.V.V.V.B.B.B.B.",
"A.V.A.K.K.C.V.V.C.C.C.J.J.J.C.C.J.J.J.J.J.J.J.J.XXC.5.[ R U J G  .2 @ 2XkXjX[.w $.%.a 5.I.6XB.J.K.K.K.K.J.J.K.K.K.K.K.K.K.K.K.K.",
"J.A.A.A.A.V.V.C.C.C.J.J.J.J.J.J.J.J.J.J.J.J.J.J.u.5.` P Q ( ( Q ~ 6 1., $.i.2 A A Y k | %.P.{.M.K.K.K.K.K.K.K.K.K.K.K.K.K.K.K.K.",
"V.B.B.V.V.V.C.J.M.C.J.J.J.J.J.J.J.J.J.J.J.J.J.J.} | ~ W W ! / / L #.X. .A 7 o.E 5 I K X.g m.C.U.V.V.V.L.L.V.V.V.V.V.V.V.V.V.V.V.",
"K.K.K.K.K.K.K.K.M.C.J.K.J.J.J.J.L.M.I.U.M.G.U.t.R ~ ! W ^ ) ! z @.W o.i Z [ a 6.3 1 Y T X.y.G.P.K.K.P.P.J.K.K.I.J.K.K.K.V.J.J.V.",
"J.J.J.C.J.J.J.J.M.M.J.J.J.J.J.J.K.K.B.C.P.T.e.{ I ~ ) ! I W ^ #.H [ i u.D D 6.3 ,., Z ~ ) ' e.J.K.K.K.A.J.K.K.K.V.K.K.K.J.K.K.J.",
"V.V.V.V.V.V.V.V.B.V.J.J.J.J.J.K.C.[.V.V.Y.p.Y I ) Q I ~ +.) I 6 R Z y zXwXw y F.jXw ] _ K I { n.L.V.B.V.V.C.V.M.B.B.V.B.B.C.A.C.",
"K.K.K.K.K.K.K.K.P.P.[.[.P.P.P.P.C.{.{.P.H.| P ( W ! ~ ~ k 7 7 6 Y D 3XzXDX;.,.SXFXr o.J L ) T 2.V.V.B.B.V.V.B.M.k.B.B.B.V.J.K.K.",
"XXXXXXXXXXXXXXXXXXXXOXOXOXOXOXXX5XI.+XY.7.Y Q ( ~ ~ R 6 4 4 6 [ D ;.nXvXbXvXDXAXFXr D J L @.I ' l.H.K.K.A.Z.J.K.V.C.C.C.K.{.XX{.",
"XXXXXXXXXXXXXXOXOXOXOX6X0X0XOXOXeXJ.G.p.[ R O.J ' | | | [ ' ' ' d D.mXJXSXbXSXSXFXr D R ! ! H ..7.r.J.K.K.Z.K.K.C.C.C.A.P.XXOXXX",
"|.|.|.|.|.|.|.|.XXXXXXOXOXXX{.K.N.t.7.O.U ~ [ ` %.H.Y.T.7.| ' Y F xXSXJXcXxXxXSXSX;.8.| X.I U _ ' 7.r.V.Z.V.V.L.V.V.B.V.P.|.XX|.",
"XXXXXXXXXXXXXXXXOXXXXXXX|.[.V.k.u 1.[ J H U ' e.+X7XU.5.` ` Y 6 5XzXFXGXcXxXDXcXbX_.m.v v I _ U P | e.M.K.K.V.V.C.C.V.C.P.XXOXXX",
".X.X.X.X.X.X.X.XXXA.$X$XK.h.S A x X.^ H k ' R.+X|.Y.x ) ~ Y F ;.cXbXSXbXcXcXbXSXFX,.S.C.4.1. .' ) W c ` 7.n.G.V.B.V.V.V.K.{.OXXX",
".X.X.X.XXXXXXXXX|.k.Z.Z.k.8.f i 5 x O.) _ [ 2.t.N.} 7.k I 7.y sXbXSXSXSXbXcXbXSXSX`..XXXN.r.5.` l I ..| { S &.8.A.[.[.[.{..XXX|.",
"qXqXqXyXyXyXyXyXXXf.f.f.s.0.h f g ' Y c Y ` 2.t.] Y ..I Y D ;.DXSXSXSXSXSXbXSXSXvX_.9XpX7XeXY.n.l ~ +.| g i i d XX0XuXqXrXqXqXrX",
"hXhXhXhXhXhXhXhXeXB.f.c.k.l.0.5.4.5.2.1.2.S i i J O.P +.i $.sXGXSXSXSXSXSXSXSXSXjX2X9XyXuXjXpXI.R R Y Y p f f i 4XqXhXhXpXpXpXpX",
"yXyXyXuXyXpXpXpX0Xk.f.f.s.h.0.r.h.l.l.l.0.h < < ! H O.o.e _.vXFXSXSXSXSXSXSXSXbXsX9X9X8X8XrXXXg.] ]  . .1.1.1.%.}.4XyXyXqXqXqXqX",
"yXuXuXuXuXpXpXpX}.a.a.9.9.9.&.8.l.k.j.x.j.3.f g ( l +.Z $.xXGXFXSXSXSXSXSXSXbXcX_.9X9XuXuX0X}.g.5.H.Y.Y.U.G.U.Y.4XwXyXyXqXqXqXwX",
"uXuXuXuXuXuXuXuX[.a.a.0.9.9.&.8.d &.s.B.M.5.` ..K ~ E u D.xXGXSXSXSXSXSXSXSXcXvXz.8X8XfXpXwXqXP.I.7XpXpXeX7XeXpXuXuXuXuXuXuXuXuX",
"0X0X0X0X0X0XrXrX.Xf.f.k.k.k.0.0.{ 1.N d u 2 6 ( W O.} , zXxXcXSXSXbXbXSXSXSXcXvXg.#XoXXX6X|.eX5XuX0XXXXX4X4X4X5X0XrX0XXX6X0XrX0X",
"C.P.P.J.J.J.J.C.J.J.J.J.C.C.C.C.G.r.N.9.%.5 P Q K #.] % zXDXDXbXSXSXJXSXvXFXkX>.[.[.[.{.}.{.I.I.{.{.[.[.[.{.{.{.XX|.|.{.P.K.K.K.",
"P.P.P.P.P.P.P.P.P.J.K.K.J.J.J.J.T.N.J.h.t.p ..( K I Y d sXcXcXSXvXbXmXJXGX2X=.,.XXXXXXXXXXXXXXXXXXXXXXXXXXXXXXXX[.[.[.P.J.C.J.J.",
"U.J.U.U.U.U.U.U.U.J.J.J.J.J.J.J.J.M.I.J.n.| O.Q ^ ~ T ` w.jXFXJXSXGXDXzXjX=.t *.XXXXXXXX|.|.|.}.|.}.}.}.}.}.|.|.XXOXOXXX|.{.{.|.",
"U.J.J.J.U.J.J.J.J.J.J.J.J.J.J.J.J.C.P.U.r.| ~ H ^ ^ ! T a E.jXcXxXzXnXaX& e 3.S |.XXXX|.{.|.|.{.{.{.{.{.{.{.{.{.{.|.|.{.P.K.K.K.",
"U.J.J.U.J.J.J.J.J.J.J.J.J.J.J.J.P.J.P.G.5.[ ~ Q U H Q ) R D $.,._.F.$., } ] ' ' XX7X6XOXXXOXOXXXXXXXXXXXXXXXXXXXXXXX|.{.P.K.K.K.",
"C.B.C.P.P.C.C.J.J.J.J.J.J.J.J.J.[.{.J.G.} [ ~ ^ K Q ! P Z i w y d D i Y P +.T [ J.I.|.[.[.{. X[.[.{.[.[.[.[.[.[.XX|.|.{.P.K.K.K.",
"B.m.B.{.|.{.{.XX}.}.}.|.|.|.|.|..XXX|.U.{ [ W ^ ! ^ ..A S N.q.*.A } +.I #.) ~ c 0.m.C.B.B.Z.A.Z.V.V.V.V.V.V.V.V.B.B.B.m.k.h.h.k.",
"B.B.D.0XuXqXuXhXuXuXuXuXuXuXuXuXrXuXiX7X1.[ I ! / c 2.I.|.zXeX+X7.' I ^ H H I ..w.m.C.B.B.Z.A.Z.V.V.V.V.V.V.V.V.A.A.A.C.C.C.J.J.",
"A.B.A.0XpXuXqXpXeXqXpXjXfXrXyXhXjXjX6X0.| ..Q K A e.+XuXpXuXuXpX6XN.} ' X.! / ! 1.q.C.A.Z.Z.K.K.V.V.V.V.V.V.V.V.V.V.V.L.V.J.J.J.",
"V.B.A.0XuXqX0XqXuXuXyXyXhXhXpXeX5X7XH.y.' T I R n.U.eXhXuXuXuXpXpX|.e. .T ! ! W  .u.G.A.'.A.k.M.V.V.V.V.V.V.V.V.V.V.L.L.V.J.J.J.",
"V.B.D.0XuXqXqXuXuXyXqXqXpXpX7XG.5.7.[ R R R y.p.eXpXhXjXuXuXhXhXjXuXU.2.x ~ ^ ! Y ` e.G.M.J.P.m.C.C.C.C.C.C.C.C.C.C.C.C.A.A.A.K.",
"B.B.J.6XuXqXqXuX0X0XyXuX7XG.5.{ ' I H K Q ' t.+XuXuXuXuXyXyXuXpX9XrXI.e.` I ^ ( k [ x S N.J.M.J.V.V.V.V.V.V.V.V.V.V.V.V.V.C.C.C.",
"V.B.A.|.6XXXXX4XXX.X0X6XM.f 5 a X.^ Q K U p 0.$XoXoXoX.X.XXXXX.XoXoXK.M.5.x c ^ #.x a f d w.C.h.V.V.V.V.V.V.V.V.V.V.V.V.V.C.C.C.",
"{.[.{.XXXX|.}.|.OX}.{.P.8.e 2 g x T T T ` { s. XA.A.K.P.[.[.'.A.[.A.K.J.r.S p ' ' ` 5 < d 8.h.K.[.[.[.[.[.[.[.[.[.[.[.[.[.{.{.{.",
"OXOXXXOXXX|.|.XXXXXX|.D.i.3.%.S i S 1.2.t.N.V.K.K.K.K.K.K.K.K.'.L.K.K.J.M.r.5.5.{ f d d *.s.K.K.XXXXXXXXXXXXXXXXXXXXXXXXXXOXOXOX",
"OXXX|.|.|.|.XX6X{.0X0XXX5X5XN.%.*.N.M.N.I.+XP.m.K.K.J.J.J.L.K.].H.U.K.V.A.P.J.r.r.r.q.q.N.V.K.K.{.{.{.{.{.{.{.{.|.|.|.|.|.|.|.XX"
};
