/* XPM */
static char *_ea734363c924724e97ffc6f8d594b4dzAWMZg6qJYQD2mi2[] = {
/* columns rows colors chars-per-pixel */
"64 64 256 2 ",
"   c #060401",
".  c #170200",
"X  c #1A1300",
"o  c #2C1308",
"O  c #323419",
"+  c #4D1800",
"@  c #562E05",
"#  c #653B02",
"$  c #6F3516",
"%  c #4F1224",
"&  c #754C10",
"*  c #7C5A26",
"=  c #6A522E",
"-  c #7A6234",
";  c #7F642F",
":  c #5E4422",
">  c #753641",
",  c #756952",
"<  c #5F554A",
"1  c #853E00",
"2  c #844A01",
"3  c #895A19",
"4  c #955C18",
"5  c #8C530E",
"6  c #986318",
"7  c #966211",
"8  c #AC6809",
"9  c #A76818",
"0  c #B97618",
"q  c #B77111",
"w  c #875D28",
"e  c #915632",
"r  c #8B6327",
"t  c #976A29",
"y  c #8B6A39",
"u  c #9A6736",
"i  c #9B7235",
"p  c #9C722E",
"a  c #A76B26",
"s  c #AB772A",
"d  c #BD7B22",
"f  c #BC7B2B",
"g  c #B57729",
"h  c #A46937",
"j  c #A77736",
"k  c #B37E35",
"l  c #B87A38",
"z  c #B26F21",
"x  c #A15F09",
"c  c #C77D19",
"v  c #C67E25",
"b  c #C27E32",
"n  c #C37935",
"m  c #883F52",
"M  c #975A41",
"N  c #854C49",
"B  c #94704B",
"V  c #A67945",
"C  c #B57C48",
"Z  c #AD7151",
"A  c #A47067",
"S  c #9B5F67",
"D  c #BD832B",
"F  c #B7862F",
"G  c #A9823D",
"H  c #BB8333",
"J  c #BB833A",
"K  c #B78638",
"L  c #B3882E",
"P  c #B2801F",
"I  c #CC841D",
"U  c #C9841A",
"Y  c #D2851D",
"T  c #D58B1B",
"R  c #D48E15",
"E  c #CC8424",
"W  c #CC8A24",
"Q  c #C5832D",
"!  c #CC862A",
"~  c #CD8A2B",
"^  c #C68525",
"/  c #D38623",
"(  c #D48B24",
")  c #DA8C24",
"_  c #D48C2B",
"`  c #D98D2A",
"'  c #D1862A",
"]  c #DA912C",
"[  c #D79328",
"{  c #C38233",
"}  c #CA8633",
"|  c #CB8A34",
" . c #C4843B",
".. c #C9863A",
"X. c #C68A3A",
"o. c #CC8C3C",
"O. c #C48B34",
"+. c #D48C35",
"@. c #C9923C",
"#. c #D3923C",
"$. c #DA9435",
"%. c #C8932D",
"&. c #E49634",
"*. c #E3982D",
"=. c #DEA03D",
"-. c #978259",
";. c #AA8248",
":. c #BA8746",
">. c #A98557",
",. c #B98857",
"<. c #BC9859",
"1. c #968867",
"2. c #B89969",
"3. c #B2936F",
"4. c #B3A176",
"5. c #C18342",
"6. c #CC8B43",
"7. c #C78B48",
"8. c #D28D45",
"9. c #CB9348",
"0. c #D2934C",
"q. c #D59746",
"w. c #C48B56",
"e. c #C59353",
"r. c #CC945C",
"t. c #CA9657",
"y. c #D39554",
"u. c #D49A5C",
"i. c #D79B59",
"p. c #D5A45C",
"a. c #CEA35E",
"s. c #E9A850",
"d. c #C78B66",
"f. c #CC9464",
"g. c #CD966B",
"h. c #CE996C",
"j. c #C89766",
"k. c #D39C65",
"l. c #D1966C",
"z. c #D29A6E",
"x. c #D89B65",
"c. c #C78875",
"v. c #CC9774",
"b. c #D49C72",
"n. c #D59A77",
"m. c #C9A76A",
"M. c #D5A265",
"N. c #DCA464",
"B. c #D4A26D",
"V. c #DBA46C",
"C. c #DCAA6B",
"Z. c #C5A676",
"A. c #D5A372",
"S. c #DCA574",
"D. c #DDAA75",
"F. c #DCA679",
"G. c #DDAA7A",
"H. c #D3A976",
"J. c #DEB27B",
"K. c #DCB377",
"L. c #E3AB6E",
"P. c #E5AA69",
"I. c #E2A574",
"U. c #E2AC75",
"Y. c #E2AC7A",
"T. c #E7AB7A",
"R. c #E4B275",
"E. c #E4B17C",
"W. c #EAB37C",
"Q. c #EBB678",
"!. c #E9B36B",
"~. c #E09345",
"^. c #C5778A",
"/. c #B5AB8F",
"(. c #AAA499",
"). c #D89885",
"_. c #D08E8E",
"`. c #E39C9A",
"'. c #DAA986",
"]. c #D1B48A",
"[. c #E2AD80",
"{. c #E1A789",
"}. c #E5B482",
"|. c #EAB683",
" X c #E6B884",
".X c #EBB986",
"XX c #EDBC8A",
"oX c #E8B88B",
"OX c #F1BD85",
"+X c #F2BD8B",
"@X c #F1B685",
"#X c #E4A498",
"$X c #EDBD92",
"%X c #E8B391",
"&X c #F2BE95",
"*X c #EC9CB3",
"=X c #D9B4A5",
"-X c #EBA7A8",
";X c #F4ABB4",
":X c #FBACBC",
">X c #F6AAB9",
",X c #FCB2BC",
"<X c #FAB1B5",
"1X c #F2B2AC",
"2X c #DE91A1",
"3X c #BFC2A7",
"4X c #DBC190",
"5X c #EEC18D",
"6X c #EAC588",
"7X c #F3C28B",
"8X c #F7C68A",
"9X c #EDC492",
"0X c #EBCA95",
"qX c #F4C494",
"wX c #F5CA95",
"eX c #FACA95",
"rX c #F6C699",
"tX c #F9C498",
"yX c #F6CC9A",
"uX c #FACD9B",
"iX c #FBC692",
"pX c #FDD29D",
"aX c #FCD599",
"sX c #DACBAD",
"dX c #FCCDA3",
"fX c #F7CAA4",
"gX c #FDD3A2",
"hX c #FED5A9",
"jX c #FADAA8",
"kX c #FDDBB2",
"lX c #EAD2AF",
"zX c #FBE5AA",
"xX c #FFEBB4",
"cX c #FBECBB",
"vX c #F8E7B9",
"bX c #FDF2BE",
"nX c #FFF1B1",
"mX c #ECE6B6",
"MX c #FBABC2",
"NX c #FFB3C3",
"BX c #FFB5C9",
"VX c #FFBCC6",
"CX c #FFBCD2",
"ZX c #F3D6C8",
"AX c #FAEBC5",
"SX c #FEF3C2",
"DX c #FDF4CC",
"FX c #FFFBCB",
"GX c #FBF7C5",
"HX c #F7EBD9",
"JX c #FEF9D3",
"KX c #EDE3C0",
"LX c #FDF7E5",
"PX c #FDFFF8",
"IX c #EEEFE7",
"UX c #DAD1C0",
/* pixels */
"XXXXXXXXXXXXXXXX+XXXXXXXXX.X}.Y.S.U.E.E.Y.G.Y.Y.N.k.U.|.F.Y..XF.M.U.E.Y.D.G.Y.G.n.[.Y.E.U.F.[.'.|.|..XOXOXOXXX|.XXXXXXXXXXXXXXXX",
"5X5X5X5X5X5X5X5XXXXXXXXX5XXX XE.Y.S.A.A.S.D.S.S.6.l 5.x.W.S.A.E.|.E.D.S.S.G.Y.[.E.C.R.N.M.U.S.}.+X+X+X+X+XOXXXXXXXXXXXXX5X5X5XXX",
"XXXXXXXXXXXXXXXXXX.XXXXXXXXX XE.Y.F.H.D.J.D.M.t.g 8.6.7.U.@XY.E.F.G.}..X}.Y.G.Y.!.p.k k J :.S.Y.+X+X+X.X.XXX7X8XXXXXXXXXXXXXXXXX",
"5X5X5X5X7X7X5X5XXXXXXX5X5X5XXX.XoXoXoX5XXXC.7.s 8.6.l C w.,.;.,.g.f.f.f.f.f.r.r.K s 7.l h V V d.l.z.z.h.h.B.D.W.XXXXXXXX5XXX5XXX",
"wXwXeXeXeXeXeXeXeXwXwXeXuXuXeXqXrXuXdXuX7XM.J 9 2 @ + # w >.,.i z.f.f.k.V.V.r.:.:.C u d.{.).c.M v.b.b.b.A.D.XXeXwXwXwXwXwXwXwXwX",
"yXyXyXyXyXyXyXyXuXyXyXuXuXpXuXyXpXpXuXuX7XL.9.H :.:.:.r & * r & 6 l y.y.w.7.5.l Z Z ).`.;XNX`._.d.d.g.g.f.A.|.eXyXyXyXyXyXyXyXyX",
"wXwXwXwXwXwXwXwXwXwXwXwXwXwXwXwXwXwXwXuXwXR.9.g s 6 5 4 a j a 6 z ..8.b g  .8.6.Z ).-XBXCXCXVX-Xv.n.n.b.b.G.7XpXwXwXwXwXwXwXwXwX",
"wXwXwXwXwXwXwXwXyXyXwXwXyXyXwXwXwX9X0XuXwXC.s 2 2 g H z g { b } +.} z 9 b q.f 2 ).1XVXMX*XMXNX;Xc.n.n.b.h.A.|.eXyXyXyXyXyXyXyXyX",
"tXtXtXtXtXtXtXtXtXtXtXtXtXtXtXtX6XgX&X}.aXK 2 n ~ _ U x s 2 6 1 0 $.c c ) #.a M ,X>XNXBX:X>X,X;Xv.n.v.g.b.G..XrX0X9XyXrXtXrXuXqX",
"G.G.G.G.G.G.G.G.F.F.F.F.F.F.F.F.D.F.Y.Y.p 6 g ~.E ] ! 2 :.# J z 0 _ E c ] ..5 #X>X>X:XMX:X:XNX,X).{.{.'.'.}.oXtXwX9X9X$X}.G.[.F.",
"h.h.h.h.h.h.h.h.g.g.g.g.g.g.g.g.j.f.,.u ;.L D v ] E d 6 w # :.a 0 ! / ) ] b e fX;XNXNX:XNXNX>X<X'.fXfXqXtXrXwXrXuXrXrX$XF.h.h.g.",
"z.z.z.z.z.z.z.z.h.h.h.h.h.h.h.h.S.f.h u # G | Y / E  .<.- - i k c _ E &.E f Z -X,XVX>X*X:XNX>X,X'.fXkXdXpXhXgXgXgXgXhXrXG.h.z.z.",
"z.z.z.z.z.z.z.z.h.z.z.z.z.z.z.z.S.k.h * = i D *.&.} j 4.KXDXj X.W ] / &.v l Z -X;X,X:X:XBXBX;X;X'.fXhXuXuXgXgXdXgXgXhXrXF.h.b.b.",
"g.g.g.g.g.g.g.g.g.g.g.g.g.g.g.g.d.f.;.- AX2.s I v ..m.KXPXLXt q._ _ ) / E f u ZXVX>X:XBXBXNX>X-X%XdXhXrXyXpXfXgXuXdXgXtXF.g.z.z.",
"l.l.l.l.l.l.l.l.z.z.z.z.z.z.z.z.n.C ;.sXLX=XC E +.J %XPXIXLXr d _ / ) Y / ..e #XVX_.2X>X*X;XNX>X&XdXdXrXyXrXyXgXuXuXgXqXF.g.z.z.",
"z.z.z.z.l.z.z.z.z.b.z.z.z.z.z.z.n.,.y sXPXsXw +.} :.vXIXPXUXi +.E ` I ) / 8.h e S N ^.CXBX:X>X_.$XrXqXqXtXqX9XfXtXtXuX&XA.g.z.z.",
"Y.U.S.Y.Y.S.U.Y.D.F.S.S.S.F.F.F.E.}.B HXHX].L [ } ;.UXPXIX-.J W ( ) Y *.( Q 3 M S _.:XBXMX;X`.c.D.D.D.D.G.G.G.G.Y.Y.Y.Y.Y.Y.Y.Y.",
"}.Y.Y.Y.Y.Y.Y.Y.Y.Y.Y.D.G.G.G.G.iX$Xy LX, - K U q.w O (.HXy @.W ` / ) / / | C e -X;X>XMX:X;X#X'.Y.Y.Y.Y.E.E.E.E.Y.Y.Y.Y.Y.Y.Y.Y.",
"Y.Y.Y.E.E.Y.Y.Y.Y.Y.Y.Y.Y.Y.Y.Y.S.oXB lX. @ t.~ H # X , ].j Q Y E E &.Y ] | :.@ ,X>XMXBX,X#X).F.S.S.S.S.F.S.F.F.Y.Y.Y.Y.Y.Y.Y.Y.",
"Y.Y.Y.Y.Y.Y.Y.Y.Y.Y.Y.Y.Y.Y.Y.Y.uXXX>.3.o : e.6.e.& . 1.>.a +.) +.^ E 8 q f h $ >X:X,X>X#X).'.oX}.}.}.|.|.|.|.|.Y.Y.Y.Y.Y.Y.Y.Y.",
"}.Y.Y.Y.Y.Y.Y.E.Y.Y.Y.Y.Y.Y.F.F. XH.>.B = : V h ;.B = 4.y a 9 8 5 8 q 0 ( q.e A >XNX,X-X#X%X$X.XG.G.G.G.Y.Y.Y.Y.Y.Y.Y.Y.Y.Y.Y.Y.",
"Y.Y.Y.Y.E.Y.Y.Y.Y.Y.Y.Y.Y.G.F.F.w.C 3 Z./.= = @ 0XlXKX1.* G 9 X.7.{ Q U U { $ _.,X<X#X).{.tX+Xz.E.E.E.E.E.}.}.}.Y.Y.Y.Y.Y.Y.Y.Y.",
"A.F.Y..XXX.X.XXXoXoXoXoXoXoX X}.3 4 3 0X/.X o , cXDXsX-.* * 3 r 6 9 } ] $.{ u #X-X#Xv.d.z.Y.Y.S.B.B.B.B.A.A.A.A.S.S.S.S.S.S.S.S.",
"B.S. XqXuXpXpXgXdXdXgXgXdXuXrXrX:.9.j 2.lX/.(.HXAXDXDX1.@ r V >.a 6 #.W ^ 4 h _.c.c.n.[.Y.V.x.I.F.F.F.D.D.D.G.G.S.S.S.S.S.S.S.S.",
"Y.F.[.uXhXuXyXjXpXuXuXuXuXuXgXgXy.@.K j : , < O (.3X<     O AXxXP L F D X.0.V.G.Y.Y.Y.Y.Y.Y.Y.Y.Y.Y.U.U.U.Y.Y.Y.I.I.U.U.U.U.I.I.",
"G.F.[.uXhXuXyXgXgXpXgXuXuXuXgXgXOXi.K G >.AXsX<     . o o B sXbXj :.7.k 5.L.W.F.A.S.S.F.F.F.F.S.Y.Y.Y.U.Y.Y.Y.Y.Y.U.Y.Y.Y.Y.Y.Y.",
"G.F.}.rXhXpXuXjXgXgXgXgXgXgXgXgXXXaXC.;.V lXJXAXO . % S m =XJXsXM V C w.u.I.D.A.F.F.Y.Y.Y.Y.Y.Y.Y.Y.Y.Y.Y.Y.Y.Y.Y.Y.Y.Y.Y.Y.Y.Y.",
"F.F.[.tXuXrXrXuXeXrXrXrXrXrXrXrXhXtXpXpX,.2.jXjX3X. > ^.S ZXkX- + & :.L.R.S.G.oXS.F.Y.Y.Y.Y.Y.Y.S.S.S.S.S.S.S.S.S.S.S.S.S.S.S.S.",
"A.A.G..XoX.X X X X X.X.X.X.X.X.X}.}.F. XK.j i ;.4XA N N 1X].* t 9.X.f g  .V.S.v.z.b.A.A.A.A.A.A.A.A.A.A.A.A.A.A.S.S.S.S.A.A.A.A.",
"G.F.G.G.Y.G.F.H.D.D.D.U.Y.U.U.U.6XG.+XQ.9.s 9.:.r G.kXkX].& 4 ..U W ( ~ } 0.I.@XS.S.I.U.U.U.U.I.Y.Y.Y.Y.U.U.Y.Y.Y.Y.Y.Y.Y.Y.Y.Y.",
"Y.G.G.D.D.G.D.S.S.D.D.U.Y.U.U.U.C.R.T.5.#.^ Q l K s e.j t s d ` $.( Y ` _ v 6.P.Y.Y.Y.W.W.W.W.W.Y.Y.Y.Y.Y.Y.Y.Y.Y.Y.Y.Y.Y.Y.Y.Y.",
"H.D.S.A.F.G.Y.D.V.C.D.U.U.U.U.D.!.u.L. ._ U v 9 %.O.9  .9.q.U T ' _ ` ) _ _ | ..S.I.U.U.U.U.U.U.S.I.S.I.I.S.S.S.S.S.S.S.S.S.S.S.",
"Y.Y.Y.Y.Y.Y.Y.Y.I.I.D.D.D.R.U.L.D.N...#.+.O.5 & 6.o.| D s q.E ) Y / ) ` ` _ ' E y.L.Q.W.E.Y.W.T.|.|.W.Y.Y.Y.Y.Y.Y.Y.Y.U.U.Y.U.A.",
"D.U.U.U.Y.Y.U.Y.S.I.U.D.D.U.U.U.W.i.} E ^ O.3 <.3 9.H L p.K ~ ( &.` c c / ` _ E ..y.P.E.E.Y.Y.Y.Y.Y.Y.Y.Y.Y.Y.Y.Y.Y.Y.U.Y.Y.Y.S.",
"S.S.S.S.S.S.S.S.V.Y.E.Y.D.Y.E.T.P.o._ U U @.r jXH.i t 6XzXG g _ c E _ $._ I / ] ^ | y.I.Y.G.F.D.S.S.S.S.I.S.S.A.A.S.S.S.F.Y.G.F.",
"Y.Y.Y.Y.Y.Y.Y.Y.U.W.|. X|.|.W.T.0.Q ) T [ K * DXFX4.Z.xXxX6XK { q 8 q ^ ] ] / E T W 6.x.S.A.A.A.S.S.S.S.S.S.A.A.B.A.A.A.S.Y.Y.Y.",
".X.X.X.X.X.X.X.XOX.X.X.X+X+XW.L.} ! T ) [ s ; DXGXvXSXmXcXGX<.J Q 0 8 8 d ~ _ ' [ W } 0.x.B.S.E.S.S.S.S.S.Y.Y.Y.F.D.D.G.Y..X.X.X",
".X.X.X.X+X+X+X+X7X+X.X+X7X7X!.i._ ` U ( ~ G B DXGXcXFXSXJXvXK.j | | | Q Q ..o.o._ ! ^ o.y.N.L.U.Y.Y.Y.Y.Y.Y.U.S.F.D.G.G.E..X+X.X",
".X.X.X.X.X.X.X.XOXXXXXXXOXQ.i...[ ( / ' ..u.2.SXSXcXSXGXGXAXxXG } o.o.6.i.P.i.l ..} ~ W +.q.y.w.A.S.U.Y.Y.S.S.B.S.D.D.D.Y..XXX.X",
".X.XXXXX.X.X.X.X|..X.X.XW.P.q.D W U ` +.8..X].cXvXGXnXFXAXDXxXaX9 Q o. .5.i.L.V.5.o.~ I U Q g h ,.w.k.A.Y.Y.U.S.F.D.D.D.E..X+XXX",
" XoXoXoX.X.XoXoX.XW.Q.P.| d ! $.| b 0.i.OXoXZ.DXcXbXSXSXSXSXSXSX<.G Q ] ` { k.'.E.5.+.` c ` +.b H J e.M.S.H.H.H.A.F.F.G.Y.[.}.|.",
" XoXoXXXXXXXXXXXf.:.J X.| ~ ! v ..b y.y.D.H.2.AXbXSXSXSXSXbXSXSXaXp q.c _ } l r.t.7.Q _ ] / d 9 k :.p.U.E.G.G.}.}.}. X X.XoX.XXX",
"yXwXwXyXpXpXwXqXl t 9 f | +._ v 7.7.x.f.z.j.2.vXSXSXSXSXbXbXSXSXbXm.s | E ^ o.H t.i.f ^ $.| | { :.u.Q.eXuXwXrXpXwXwXtXtXwXwXwXrX",
"jXgXpXgXgXgXyX9Xj a g { Q ! ~ ! w.r.I.z.b.g.j.jXSXSXSXSXbXbXSXSXAXzXp O.~ 0 s.0 s k J y.!.P.P.N.7.M.7XpXgXrX9X9XpXpXpXpXpXpXpXpX",
"pXyXyXyXpXyX9XoX7.l J X.{ f b { w.f.b.l.z.h.v.9XSXSXSXSXSXbXSXSXDXcX0X6 @.^ [ U 4 4 t.Q.OXeXeX7X8X8X8XqXqXqXpXjXyXyXrXyXyXyXyXuX",
"uXyXyXpXpXpXyXwXW.r.7.0.0.0.0.5.,.f.z.l.b.b.b.'.cXbXSXSXSXSXSXSXAXFXbXG H #.I T b g Q.gXyXgXuXXXC.M.j.j.h.H. X9XwXwXwXwXyXyXuXuX",
"uXuXuXuXpXpXpXpXqXB.r.k.V.V.x.r.r.h.z.z.b.A.b.b.vXcXSXSXSXSXSXSXmXJXzX0Xp #._ ) _ #.!.qX5X}.M.t.:.r.D.oX5X XJ.J.rXrXwXwXeXeXrXuX",
"qXqXqXqXqXqXqXqX}.z.h.B.k.f.z.z.r.B.z.g.g.z.b.j.mXvXbXSXSXSXbXbXGXGXxXxXt X._ Y c ^ 9 j ;.;.:.J U.W.7XqX5XoX6XwXtXqXqXqXqXqXqXqX",
"E.Y.U.Y.Y.U.Y.E.Y.U.U.U.D.D.D.D.S.D.D.F.S.S.G.F.B vXSXGXGXFXbXcXGXcXFXxX3 O.[ R [ v z C f.h.B.Q. X X X}.}.}.}.}..X.X.X|.E.Y.Y.Y.",
"E.Y.E.W.W.W.E.W.E.Y.Y.Y.U.U.U.U.D.U.U.D.S.D.Y.Y.Z.y lXcXFXmXbXSXFXSXxX6Xp O.( *.( E  .N.+XXX|.7XXXXXXXXXXXXXXXXX}.}.}.E.Y.D.U.U.",
"U.U.U.W.W.W.R.W.U.U.U.U.U.U.U.U.C.U.U.U.V.U.U.U.i ;.r xXzXbXFXSXAXJXxXa.K #.E / Y _ q.!.iX7X X|..X.X.X.X X X X XXX+X+XXX.X|.|..X",
"R.U.U.W.W.U.U.U.R.R.R.U.U.U.U.U.U.R.R.U.L.U.U.U.0.k k & 6XnXzXxXvXxX6Xs ^ ~ _ ` ( _ o.i.W..X}.|..X.X.X.X.X|..X|..X.X.X|.E.Y.Y.Y.",
"W.U.U.U.U.U.U.U.U.U.U.R.U.R.R.R.U.W.W.U.U.R.R.L.f q.D F 7 G m.6XH.:.K 0 $.c ] &.( _ | y.R.+X+XqXXXXX.X+X.X.X.X.X.X.X.X|.W.Y.Y.Y.",
"D.D.D.D.D.D.D.Y.U.U.U.U.U.U.E.E.Y.E.E.U.R.R.L.M.v v +.$.D s K j t 3 s O.=.U [ U Y _ | 0.L.|.}.}. X X}.}.}.}.}.}..X.X.X|.W.Y.Y.Y.",
"B.A.D.E. X X X.X X X X.X.X.X.X.XoXoX X XXX6XR.M.E _ &.( _ } D X.:.t.e.J { Q &.c Y _ Q X.i.S.A.b.S.S.S.D.S.S.S.S.A.A.A.B.k.k.k.k.",
"A.H.}.qXrXrXuXuXrXrXrXrXuXuXuXuXdXuXrXrXpXpX8XR._ _ U ) ) E } 8..XpX}.k.7.b #._ T ( Q { y.U.Y.[.S.S.S.S.S.S.S.S.G.G.G.D.D.D.U.U.",
"G.A.J.eXgXwXwXpXyXyXyXyXyXpXpXyXpXuXdXfXdXpX8Xp.W ( _ _ }  .M.aXuX9X}.G.D.N.9.H T W _ }  .u.Y.'.D.G.F.b.A.F.S.V.S.S.S.S.S.S.S.S.",
"D.B.G.qXuXqX5XuXwXwXrXwXrXuXuXwXgXwXyXgXjXaXQ.9.W [ _ ~ q.N..XpXuX5XJ.F.D.V.i.9.~ W _ _ } 9.x.k.V.V.S.Y.Y.Y.S.S.Y.Y.Y.Y.Y.Y.Y.Y.",
"D.A.G.qXuXwXqXuXuXpXpXuXuXpXpXyXgXuXpXpXiXQ.q.d I [ W } P.eXhXhXpXqX}.G.G.Y.I.V.8.| _ ( I ^ ..6.7.i.Q.@XS.f.A..XA.A.S.S.S.S.F.S.",
"A.A.Y.7XuXwXwXuXrXuXuXrXrXuXuXtXeXeXaX8Xp. .Q ! ( ( ^ o.Q.pXhXfXpX7X}.F.S.Y.Y.F.x.6.~ ( R U ' ' 6. .7.x.Y.Y.S.A.Y.Y.Y.Y.Y.Y.Y.Y.",
"F.S.G..X7XXXXX5XXXXXXXXXXX5XXX X|.R.R.t.s 9 Q $.] ~ Q 0.Q.XXoX$X+X|.G.F.A.F.F.F.F.w.{ W T ( ` +.z a l t.V.S.F.E.B.B.B.B.B.A.A.A.",
"|. X|..X.X.X.X X X.X.X X X.X XG.E.k.:.j 6 9 f { } { J u.E.Y.G.oX}.Y.D.D.D.Y.[.[.}.r.5.{ ! ! ^ d k 6 t :.E.7X.XF..X.X.X.X.X.X.X.X",
"+X+XXX.X.XXXXX.X.XoXXXoXoXoX XG.Y.B.t.:.j k  .l 6.9.t.M.E.E.Y.W.Y.Y.Y.R.E.E.E.}. XV.k.t.7.6. .z K :.e.M.E..X.X.X.X.X.X.X.X.X.X.X",
"+X+X.X.X.XXXXXXX.X+X+XXXXXXX.X}.S.Y.Q.C.e.t.i.y.x.W.W.D.Y.W.U.N.Y.Y.U.U.D.D.D.D.K.J.}.Y.b.V.i.7.e.M.K. X.XXX.X.X.X.X.X.X.X.XXXXX"
};
