/* XPM */
static char *a2e555f77eab4695f8b3ed992a1c1340Ub3YtFc5kJneecfa[] = {
/* columns rows colors chars-per-pixel */
"64 64 250 2 ",
"   c #2F1E0A",
".  c #683500",
"X  c #793C02",
"o  c #75360D",
"O  c #5D3501",
"+  c #784802",
"@  c #795317",
"#  c #6F450C",
"$  c #574B31",
"%  c #754E28",
"&  c #7B6136",
"*  c #736D4B",
"=  c #863D00",
"-  c #8C4C00",
";  c #864501",
":  c #914B00",
">  c #9C5B01",
",  c #985603",
"<  c #874B17",
"1  c #975719",
"2  c #885511",
"3  c #A45D01",
"4  c #A35F14",
"5  c #966518",
"6  c #9E6B11",
"7  c #AD6501",
"8  c #AC6C0B",
"9  c #A86607",
"0  c #B66C06",
"q  c #BB740C",
"w  c #B9740B",
"e  c #A86A17",
"r  c #B46E14",
"t  c #AC7419",
"y  c #B4741C",
"u  c #BC7B1A",
"i  c #B87715",
"p  c #965C2A",
"a  c #9A6826",
"s  c #996E36",
"d  c #886A2B",
"f  c #A7652B",
"g  c #A77626",
"h  c #BC7B2D",
"j  c #B87823",
"k  c #AC7435",
"l  c #B87A36",
"z  c #AE6A33",
"x  c #C17603",
"c  c #C47A04",
"v  c #CB7C04",
"b  c #C57B0C",
"n  c #CB7D0B",
"m  c #C4760C",
"M  c #D27E08",
"N  c #C47C13",
"B  c #CB7D12",
"V  c #C47D1B",
"C  c #CA7D19",
"Z  c #C17714",
"A  c #D27E16",
"S  c #C27D23",
"D  c #C77E26",
"F  c #C37E36",
"G  c #88744D",
"H  c #AC6949",
"J  c #A87B45",
"K  c #B8774B",
"L  c #CA7B71",
"P  c #BA811E",
"I  c #BA8122",
"U  c #BC842A",
"Y  c #BB8729",
"T  c #BC8437",
"R  c #BD933D",
"E  c #CC830C",
"W  c #C88205",
"Q  c #D2820D",
"!  c #D68409",
"~  c #CC8213",
"^  c #C4821D",
"/  c #CC831B",
"(  c #C88617",
")  c #D38514",
"_  c #D2851B",
"`  c #D48A1B",
"'  c #D98B1A",
"]  c #D98814",
"[  c #D8931C",
"{  c #C38323",
"}  c #CA8523",
"|  c #C3832B",
" . c #CB852B",
".. c #CB8A2C",
"X. c #CA8926",
"o. c #D48C23",
"O. c #D48A28",
"+. c #D89324",
"@. c #CB8B33",
"#. c #C68838",
"$. c #D48B38",
"%. c #D7933A",
"&. c #CA9237",
"*. c #E39422",
"=. c #E08C1C",
"-. c #9D8150",
";. c #A68658",
":. c #BA8A58",
">. c #AE8A49",
",. c #B0976F",
"<. c #8B8168",
"1. c #C78A47",
"2. c #C99448",
"3. c #D49747",
"4. c #C98A56",
"5. c #D38A58",
"6. c #CD9253",
"7. c #CA955B",
"8. c #C9975B",
"9. c #D79957",
"0. c #D58F49",
"q. c #E09F4B",
"w. c #D6A44B",
"e. c #D8A458",
"r. c #E6A759",
"t. c #EAA34A",
"y. c #C88D68",
"u. c #CA9364",
"i. c #CD956A",
"p. c #CE996C",
"a. c #C99965",
"s. c #D39C66",
"d. c #D1966C",
"f. c #D39B6D",
"g. c #D89967",
"h. c #D98F73",
"j. c #CC9873",
"k. c #D49C72",
"l. c #DA9D73",
"z. c #D79777",
"x. c #D1876A",
"c. c #E49D7A",
"v. c #CFA06B",
"b. c #D4A16D",
"n. c #DBA46D",
"m. c #D9A667",
"M. c #D6A373",
"N. c #DCA574",
"B. c #D6A975",
"V. c #DDA975",
"C. c #DDA679",
"Z. c #DDAB79",
"A. c #D6A679",
"S. c #DFB17C",
"D. c #CCA576",
"F. c #E3AB6B",
"G. c #E5A967",
"H. c #E9B668",
"J. c #F2BA69",
"K. c #E3AC75",
"L. c #E0A77B",
"P. c #E2AC7A",
"I. c #E9AE7B",
"U. c #E5A773",
"Y. c #E5B176",
"T. c #EAB276",
"R. c #ECBA75",
"E. c #E5B17D",
"W. c #E9B37C",
"Q. c #EBBA7D",
"!. c #F3B879",
"~. c #F4AE69",
"^. c #F2C56B",
"/. c #EFC177",
"(. c #F9CC76",
"). c #FBCE7B",
"_. c #F7C778",
"`. c #FCD174",
"'. c #FED37C",
"]. c #FFD97D",
"[. c #ECC067",
"{. c #B99E80",
"}. c #B4A383",
"|. c #D99980",
" X c #E59C87",
".X c #E18E88",
"XX c #DAAB83",
"oX c #CCB285",
"OX c #D8B285",
"+X c #C5AB92",
"@X c #C4A881",
"#X c #E4AE81",
"$X c #E8A787",
"%X c #F3A889",
"&X c #E5B483",
"*X c #E9B583",
"=X c #E7B885",
"-X c #ECBA86",
";X c #EDBC8A",
":X c #E6B88A",
">X c #F1BD8B",
",X c #F5BC87",
"<X c #F9AA94",
"1X c #F6AB9A",
"2X c #F6A997",
"3X c #EDBE92",
"4X c #F3BE91",
"5X c #FBB598",
"6X c #ECA290",
"7X c #FCACA3",
"8X c #FEB5A5",
"9X c #EFC18D",
"0X c #EDC28B",
"qX c #E9C385",
"wX c #F1C28E",
"eX c #F3C38D",
"rX c #FDCA86",
"tX c #FFD482",
"yX c #FFDC84",
"uX c #FFD68C",
"iX c #EDC393",
"pX c #E7C299",
"aX c #F5C793",
"sX c #F3C594",
"dX c #FAC694",
"fX c #F6CA95",
"gX c #F7CC97",
"hX c #F4C995",
"jX c #FBCA95",
"kX c #F4C69A",
"lX c #F6CC9A",
"zX c #FACD9C",
"xX c #F9C699",
"cX c #FAD19E",
"vX c #FDD498",
"bX c #EFD099",
"nX c #FFE183",
"mX c #FDCEA2",
"MX c #F9CEA7",
"NX c #E4D7A7",
"BX c #FDD2A2",
"VX c #FFD9AB",
"CX c #FBD8A6",
"ZX c #F7DCB3",
"AX c #F2CFB1",
"SX c #FDE4A9",
"DX c #FCE7B7",
"FX c #FCEAC7",
"GX c #FFF5D1",
"HX c #FFFDE8",
/* pixels */
">X>X>X>X>X>X>X>X;XwXwX;X;X;X*XZ.M.E.P.I.l.P.C.&XP.P.P.&XE.P.C.C.m.K.K.#XN.Z.0XB.P.P.I.P.P.P.P.P.&X-X&X>X>X-X>XE.>X>X>X>X>X>X>X>X",
";X;X;X;X;X;X;X;X-X;X;X-X-X-X&XZ.v.b.I.s.N.K.-XM.P.K.V.N.n.N.V.P.E.E.K.U.U.N.:.S.C.P.P.P.P.C.K.P.>X4X-X>X>X-XeX-X;X;X;X;X;X;X;X;X",
";X;X;X;X9X9X9X9X-X;X;X;X;X;X=XE.;XV.n.,Xn.F.m.T.P.P.E.E.E.E.E.E.&XC.*Xn.6.k s C.#X#X*X*X&X#XW.&X-X>X*X;X;X=XwX;X;X;X;X;X;X;X;X;X",
"wXwXwXwXwXwXwXwX9X9X9X9XwXwX;X;X&XP.I.K 4.k 1.T 7.u.u.i.i.u.u.u.j.:.7.2.l f z.h.y.y.u.u.u.u.u.u.k.N.i.f.f.b.E.&X9X9X9X9X9X9X9X9X",
"aXfXfXfXfXfXfXfXfXaXaXfXfXfXaXaXVX>XK < p p z 1.f.k.k.z.z.l.l.N.k.f.7.2.k 4.5X Xd.k.z.k.k.k.f.f.i.f.u.i.f.M.-XwXaXaXaXaXaXaXaXaX",
"fXfXfXfXgXfXfXfXgXfXfXgXcXgXgXgXxX#XH 5X%Xc.1 l 1.4.g.l.l.g.4.1.1.6.l a < l.c.6Xy.i.d.k.f.i.i.i.p.k.p.k.M.A.xXBXgXgXgXgXgXgXgXgX",
"fXfXfXfXfXfXfXfXgXfXfXgXgXgXfXgX3X$X$X X1X<Xh.z j h 1.9.9.1.h y y , X . o 4.h.z.y.i.p.d.d.i.i.i.y.d.u.i.u.f.;XfXgXgXgXgXgXgXgXgX",
"hXhXhXhXhXhXhXhXgXhXsXgXgXhXsXhXXXXXMX7X1X2X%XH { { D h h S { ^ O.y #.f o o $X2Xi.d.z.k.z.k.k.k.k.C.k.k.k.M.sXzXfXfXfXfXfXfXfXfX",
"xXxXxXxXfXaXaXfX4XzXaXsXlXaX>XjX6X1X2X<X<X<X<Xh.z $.r 3 0 N _ Q / ~ x E o.e 1 K j.|.k.f.b.M.C.j.f.p.i.i.k.C.;XxXcXlXiXBXsXmXzXsX",
"C.C.C.B.B.A.A.A.N.C.B.A.A.B.M.M. X1X6X2X1X<X6X X= | O.~ / B n Q E E ' ) q  .F ; :.k.f.M.Z.i.XXXX#XC.C.A.C.C.=X;XiX:X:X3XA.#XA.M.",
"i.i.i.i.p.p.p.p.g.u.s.M.p.p.p.u.z.5X X7X7X8X1X8X; { ~ w E n n ! ! v Q Q m C } y 9.vXCXzXVXkXZXMXBXmXzXlXkXkXzXmXcXzXlXzXA.A.k.k.",
"f.f.k.k.k.k.k.k.6.1.6.a.u.i.d.y.$X8X6X7X.X7X1X2X, ..( E +.` n b x ! ! M ] ) ~ ~ g 8.dXsXMXkXVXiXzXBXBXBXBXBXBXBXBXBXBXmXM.p.p.p.",
"i.i.f.k.k.f.g.g.1.#.1.7.u.k.l.y.c.5X1X7XL 1X8X%X; | o.b w , : - [ E n ! ! ! E q 5 2 a.lXVXMXBXBXsXkXlXmXzXlXlXzXlXBXBXzXk.i.i.f.",
"a.i.p.f.d.7.6.6. .S U 1.7.l.l.z.h.<X1X7XL |.$Xf.: S / n 0 9 j h | { m n ! v b +.s @ :.lXmXBXlXgXBXBXVXVXBXBXBXBXzXBXBXBXM.k.k.M.",
"p.f.k.f.d.6.#.#.N q r j 1.u.i.i.h.<X1X2XL H p a D o.Q Q q 9 1 + . l O.m Q ' ^ { ,.D.j.lXgXBXlXlXzXzXzXzXlXkXkXkXkXkXlXxXk.f.d.d.",
"i.f.k.d.7.1.h y ) ( i j 6.g.k.z.x.<X7X8X1XH p k / v v ! B j e . % < j o.c b X.t +XAX,.hXfX-X-XmX3XsXsXsXsXaXkXzXlXlXkXxXk.k.d.d.",
"N.P.P.C.n.9.@.i ! W N @.9.n.B.D.K.l.1X7X1X<X5.z _ ~ ) E 0 > > e ,.ZXG s X.c U @ FX@XoXOX&XP.-X&XV.V.C.C.C.Z.Z.Z.K.P.P.P.U.U.U.U.",
"K.P.&X&XI.G.%.{ E n ( $.r.T.E.Z.>Xz.6X7X7X%X5.f ` B n ) ` X.{ U -.FXHX;.U 7 t a ZX,.OXlX;X*X>XB.P.P.P.P.P.P.P.P.P.P.P.P.P.P.P.P.",
"V.P.#X&XW.G.3.@.B C / O.$.9.G.I.4X$X X2X1X<Xg.f x n n x 0 w u { -.GXHX,.+ 9 #.k & ;.pXiXzXjX;XV.V.V.V.V.C.C.C.C.P.P.P.P.P.P.P.P.",
"K.P.P.#XE.F.e.3.D } _ B N D $.9.!.,X%X$X%X5X%Xz _ o.' n x q 8 > # ,.HX$ & >.J J % ;.iXS.-X>X=XC.E.E.E.E.E.E.&X&XP.P.P.P.P.P.P.P.",
"Q.E.P.P.&XE.K.G.3...( E ) ` / V { 3.0.5.5.c.$XH i / _ B b ( } { 1.O +X<.,.G G {.oXd :.wX,X*XdXP.C.C.C.Z.C.P.P.P.&X&X&X&X&XW.W.W.",
"W.V.B.Z.&X&XE.W.G.3...N n ~ ) ) ` o.O.D y f f < > r V q 7 7 9 8 2 @ oX}.FX* $   3X@ s *XjXW.-XP.*X*X*X*X*X*X*X*XI.I.I.I.I.I.P.P.",
"n.b.M.&X;X3X;X;X;XQ.F.3. .N ~ [ ~ x ) _ C D  .| ; ; - 8 X...I t d d oXDXNXZX}.+XD.J :.8.K.s.s.N.p.i.i.i.i.f.f.f.N.N.N.N.N.N.N.N.",
"n.V.&XfXBXBXmXzXMXBXBXdX~.%./ c o.B *.Q c ] E W 1.e , > 8 i I | NXDXoXoXNXDXDXpXs J K.K.m.n.P.f.C.C.C.C.C.C.C.P.C.C.C.C.C.C.C.C.",
"P.C.&XzXBXlXlXBXkXzXmXzXjX!.e.#./ / ~ E v M M ! E b ~ q > | #.e SXDXDXZXGXZXDX,.a 2.Y.W.N.M.C.XXP.P.P.P.P.C.P.P.K.K.P.P.P.P.K.P.",
"C.C.&XzXBXBXmXBXBXBXBXBXBXvXrXR.%.X.N b E ) Q M ) E ` w , 9 y r >.qXSXSXCXqX8.# e #.e.G.F.P.P.C.C.C.C.C.C.C.C.P.C.C.C.C.C.C.C.C.",
"C.B.&XlXBXBXcXCXcXgXkXaXzXcXvXjX).J.w...C B ) ' Q ] n ` 7 Z 8 8 + 5 g g 5 e U y u { @.3.9.F.I.V.P.P.P.P.C.L.P.P.P.P.P.P.P.P.P.P.",
"B.B.#XsXgXkXsXkXcXgXsXiXsXlXzXjXzXjXrXJ.q...C N n ) x _ B o.N q #.y ..X.X.( o.~ ) ~ B C @.9.G.n.V.P.P.C.M.C.P.L.U.U.U.K.K.U.U.U.",
"V.B.Z.-X;X-X&X=X=X;X:X=X=X:X:X=X;X=X*XT.H.r.%.{ ( N w 7 N w +.( { V X.b b Q ] Q E Q n n ( @.3.3.s.n.N.f.f.N.M.l.N.N.N.N.N.N.N.N.",
"C.B.V.P.&XZ.V.A.p.A.V.V.V.Z.C.C.&XP.C.V.F.G.G.r.@.| > { r i P i e u w O.B ) v ) b Q ) ) ) ( { | m.K.K.U.C.P.P.C.P.P.P.P.K.K.K.P.",
"Z.V.B.V.C.B.B.B.M.P.E.K.K.Y.E.E.F.K.*X-XW.K.F.F.9.2.5 _.&.U j Y yXJ.9 ^ C m 7 C C _ ) ) ) ~ N V m.K.W.I.P.&X#XP.P.P.P.P.P.P.P.P.",
"Z.V.N.V.V.V.V.C.L.I.I.F.m.m.F.K.T.F.n.U.P.W.K.V.-X8.e.vX/.g w.H.(.'.#.^ ^ 8 S t.%.O.~ n E E ~ ` 7.m.K.N.C.P.C.k.C.C.C.N.N.N.C.C.",
"P.P.P.P.P.P.P.P.N.N.K.K.K.I.K.K.K.K.K.K.K.I.I.I.V.Y./.tX'.(.`.].yX(.J.i ~ ` C t.G.#.Z Q ] n N X.I.I.I.I.I.I.I.I.P.I.I.K.P.I.P.N.",
"C.C.C.C.C.C.C.C.n.N.V.K.K.K.K.V.K.K.K.K.K.K.K.I.V.Y./.tX'.`.`.'.'.(.(.8 ( / V %.3...N n ) / X.@.K.K.K.K.K.K.K.K.C.P.K.C.C.P.P.N.",
"V.V.V.V.V.V.V.V.N.V.V.K.K.K.K.V.K.K.K.K.K.P.P.P.Y.Y./.'.'.`.`.'.(.).tX8 ^ ( } S > q o.' b u &.e.N.N.N.N.N.N.N.N.N.B.N.N.C.P.P.C.",
"E.E.E.E.E.E.E.P.E.E.W.W.*X*X*XW.W.W.W.E.E.E.E.E.E.Y.R.tX'.`.`.'.'.'.tXU i ^ { : ^ o.` 0 7 h 9.V.N.N.C.C.C.C.N.N.M.N.N.N.V.P.E.P.",
"-X-X-X-X-X-X-X-X-X;X;X>X>X>X>X>X-X-X-X-X-X-X-X-X-XY.R.).tX'.`.'.nX(.(.3.t ..u . N ( q 3 > h 9.A.C.C.C.P.P.C.C.C.N.B.B.V.P.*X=X*X",
";X;X;X;X;X;X;X;X>X>X>X>X>X>X>X>X;X;X;X>X>X>X>X>X;XW.R.).tX'.'.'.`.).tX^.t P y X q / } i y 1.s.B.L.P.P.P.P.P.P.P.B.V.C.C.E.-X>X;X",
";X;X;X;X;X;X;X;X;X;X;X;X;X;X;X;X-X;X;X;X;X;X;X>XwXQ.R._.uX'.'.'.^.tXyXtXw.I j e : - ; , j 9.W.*XL.L.P.P.P.P.L.L.B.V.V.C.E.-X>X;X",
"-X-X-X-X-X-X-X-X;X;X;X;X;X;X;X;X=X-X:X;X;X;X;X;XeXQ.R._.uXtX'.).`.yX).'.yXw.U #.......| #.3.g.n.C.C.L.L.L.L.C.C.N.B.V.V.P.-X;X;X",
":X:X:X:X;X;X;X;XkX&X&X4X;X4XsX;X;X;X;X;X;X;X;X;X-X-XY.-XuXuX).].).tX'.(.'.'.w.6 ^ b ) ] A  .6.K.V.V.A.C.A.A.B.A.B.C.C.P.P.&X=X-X",
"=X=X=X=X=X=X=X=X:XM.p.C.M.M.C.k.M.M.M.M.M.M.M.M.N.V.b.m.R.rX`.(.(.tX'.`.'.yX^.e.u N ) M A D #.F.K.P.E.#XXXZ.S.S.Z.Z.P.P.&X&X=X=X",
"gXgXgXcXcXcXcXcX:Xp.i.k.p.p.f.i.p.p.i.i.i.i.i.i.f.f.a.8.m.).yX`.'.tXyX'.'.'.'.'.I u ~ n Q C S r.dXjXzXzXmXzXzXzXgXgXgXlXgXgXzXzX",
"cXcXcXcXcXcXBXBX4XC.k.M.p.k.k.f.k.k.k.k.k.k.k.k.k.i.f.f.v.R.yX].).'.'.tX'.(.(.'.&.I / Q Q Q ( %.eXdXgXzXmXzXzXzXcXcXcXcXcXcXcXcX",
"gXgXgXgXgXgXgXgX;XM.p.k.p.f.k.f.k.k.k.k.k.k.k.k.k.y.f.b.8.e./.'.).(.(.'.'.'.'.'.e.u ( ] M Q _ ( -X;XsXsXkXsXsXsXhXhXhXhXhXhXfXgX",
"cXcXcXcXBXBXBXBX;Xk.p.k.i.f.k.f.f.f.f.f.f.f.f.f.k.p.k.M.s.8.m._.yXtX'.(.'.'.'.'.w.i B ) M ) / ^ wXaXlXzXzXlXzXcXgXzXzXzXcXcXcXcX",
"fXfXfXfXkXlXlXlX;XM.f.M.f.k.l.f.f.f.k.f.f.f.f.f.l.l.k.k.f.s.v.F._.tXtX(.`.'.'.^.#.u b n Q ) V %.9XwXsXkXkXkXhXgXfXaXaXaXaXfXfXfX",
"aXaXaXaXaXaXaXaX:Xk.p.k.d.d.k.d.d.d.d.d.f.f.f.f.u.f.u.u.f.f.8.8.2.H.).(.'.yX'.[.t ^ B v ] _ u r.9XwXiXiXiXiXiXhXaXaXaXsXsXsXsXsX",
"V.P.P.P.P.P.P.V.K.K.Z.V.V.V.V.V.V.V.V.V.V.V.V.V.b.n.n.n.V.&X=X&XR g T G.).J.2.6 E n B ) ` B @.T.&X&X&X&X=X&X&X&X-X-X-XW.E.P.K.I.",
"E.E.W.W.W.W.W.W.E.E.E.E.I.I.K.K.n.n.n.n.n.n.n.n.K.K.V.V.E.-X>X;Xm.R g , , , t P 7 Z O./ w X.H.dX=X=X&X=X=X=X=X=X=X=X*XE.E.P.I.I.",
"K.K.K.Y.W.W.W.W.K.K.K.K.K.K.K.K.Y.Y.Y.Y.K.K.Y.Y.K.K.K.V.E.;XwX>XR.r.@.{ q q q o.9 8 i 0 9 &.R.;X;X;X;X;X;X;X;X;X;X;X;X-X*XW.W.Q.",
"W.K.K.K.K.K.K.K.K.K.K.K.K.K.K.K.K.K.K.K.K.K.K.K.K.Y.K.K.E.;XwX9XK.G.| o.] *.n ~ u 8 3 0 Z ..9.B.*X*X*X*X*X*X*X*X=X-X-X*XE.P.I.I.",
"W.K.K.W.Y.K.K.K.Y.Y.Y.Y.Y.Y.Y.E.K.K.K.K.K.K.K.K.Y.Y.E.Y.E.;XwX9X-XT.@.q c W v Q ~ _ B A +.Z F T.-X-X-X-X-X-X-X-X;X;X;X-XW.E.E.E.",
"V.N.V.Y.Y.V.V.K.K.K.K.K.P.P.P.P.E.E.E.E.E.E.E.E.Y.E.Y.P.E.=X=X=XaXQ.J.X.+.c ] Q x *.' M =.N j ~.=X=X=X=X-X-X=X=X-X-X-X*XE.K.K.K.",
"b.v.M.E.-XE.&X-X&X&X&X&X&X=X-X-X&X&X=X=X=X-X-X-X-X-X-X-X:X;X;X:X0XE.F.#.S q ) v c ` m 0 ) ( | G.N.N.N.N.N.N.N.N.M.M.M.b.s.s.s.s.",
"B.A.XXsXgXfXlXBXlXlXgXgXzXzXzXzXzXzXzXzXcXcXcXcXzXBXBXmXBXBXBXzXbXlXZ.9.e V B Q o.( 0 0 ( { #.m.V.V.V.V.V.V.V.V.A.C.Z.Z.V.V.K.K.",
"Z.B.S.aXcXfXhXcXgXgXgXgXgXcXBXzXlXlXlXlXcXcXcXBXBXBXBXBXBXBXBXBXkXeX!.9.e X ; e < X - i { @.9.U.C.C.C.C.C.C.C.C.C.C.C.C.C.C.C.C.",
"V.M.S.aXcXfXhXcXhXfXfXhXfXgXgXhXcXcXcXcXBXBXBXBXzXzXzXzXzXBXBXBXVXeXF.2.D y 8 9 - - > r j #.g.I.N.N.N.N.N.N.N.N.K.K.K.K.P.P.P.P.",
"M.M.S.sXzXfXfXcXgXzXzXgXzXBXcXgXzXcXzXcXcXcXBXcXBXBXBXBXBXBXBXBXgXjXT.#.u } / b ^ 8 > 9 #.G.I.#XV.V.V.V.V.V.V.V.C.C.C.V.V.V.V.V.",
"N.M.P.wXfXaXsXfXlXgXgXlXgXzXgXfXfXfXkXkXkXkXkXkXlXlXlXzXzXzXzXzXaXeXF.U u ` ` v E B r F G.I.C.M.V.V.V.V.V.V.V.V.V.V.V.V.C.C.P.P.",
"C.V.P.;XwX9X;X9X:X;X;X;X;X;X;X=X:X:X:X;X;X;X;X;X=X-X-X:X:X:X:X;X-X-XF.2.| ^ ( b x 0 8 1.U.L.p.f.N.N.B.B.B.B.B.B.f.f.b.b.b.M.M.M.",
"&XE.&X-X;X-X-X-X=X=X=X=X=X=X&XZ.Z.Z.Z.P.P.P.E.E.P.P.P.P.&X&X&X&XP.E.W.Y.e.@.{ ^ } r e K C.#XC.Z.E.E.&X&X&X&X&X&X>X>X>X>X>X>X>X>X",
">X-X*X-X;X-X-X-X:X;X;X;X:X;X=X&XV.V.V.V.V.C.C.C.P.P.P.E.E.E.E.E.W.K.N.P.Q.F.9.#.#.1.9.V.Z.Z.P.E.;X;X;X;X;X>X;X>XE.&X&X&X&X&X&X&X",
"eX>X-X-X;X;X;X;X;X;X>X;X;X;X=XE.C.C.P.P.P.P.P.P.C.C.P.P.P.P.P.P.N.P.&XXXA.V.K.T.U.U.K.S.B.S.Y.s.*X*X*X*X*X*X*X*X;X;X;X;X>X>X>X>X"
};
