/* XPM */
static char *aaf5ac32dcc647cfd17f2bcd9de7c27eAkKIO3312rAcbjXA[] = {
/* columns rows colors chars-per-pixel */
"64 64 256 2 ",
"   c #3B1700",
".  c #2C0B00",
"X  c #421B01",
"o  c #4B2705",
"O  c #582D08",
"+  c #5A330B",
"@  c #5B3713",
"#  c #4C2F11",
"$  c #66390B",
"%  c #643B13",
"&  c #653E1A",
"*  c #693B14",
"=  c #6B3912",
"-  c #5C3B27",
";  c #663F20",
":  c #6B410E",
">  c #6C4314",
",  c #6A451B",
"<  c #724314",
"1  c #7A4D14",
"2  c #74441C",
"3  c #78471E",
"4  c #754B1C",
"5  c #7A4C1D",
"6  c #744913",
"7  c #7C531D",
"8  c #775218",
"9  c #764A0B",
"0  c #6D4A23",
"q  c #694629",
"w  c #744622",
"e  c #744B24",
"r  c #7B4C23",
"t  c #744D2A",
"y  c #7A4D2B",
"u  c #7A4722",
"i  c #6D502C",
"p  c #7D5423",
"a  c #7D532C",
"s  c #785427",
"d  c #684633",
"f  c #744E36",
"g  c #6F5138",
"h  c #755235",
"j  c #7B5334",
"k  c #7A543A",
"l  c #7C593D",
"z  c #7A5638",
"x  c #6F5127",
"c  c #7D5A44",
"v  c #84531C",
"b  c #89581C",
"n  c #88501A",
"m  c #814E25",
"M  c #825424",
"N  c #845B24",
"B  c #8C5B23",
"V  c #83532B",
"C  c #8A562B",
"Z  c #845B2C",
"A  c #8C5C2C",
"S  c #8C5624",
"D  c #935D24",
"F  c #915D2B",
"G  c #965A26",
"H  c #855A33",
"J  c #8C5B33",
"K  c #835D3B",
"L  c #8B5D3B",
"P  c #845633",
"I  c #945E33",
"U  c #8B6326",
"Y  c #84622C",
"T  c #8C632C",
"R  c #856224",
"E  c #946225",
"W  c #93642C",
"Q  c #9B642C",
"!  c #936A2D",
"~  c #9C6B2B",
"^  c #986724",
"/  c #9B722D",
"(  c #8C6434",
")  c #8C613C",
"_  c #896735",
"`  c #946433",
"'  c #9A6535",
"]  c #946B33",
"[  c #9B6C33",
"{  c #93643B",
"}  c #9C6539",
"|  c #946C3C",
" . c #9C6C3B",
".. c #9D7234",
"X. c #9C753D",
"o. c #96713C",
"O. c #8F7037",
"+. c #A46A2B",
"@. c #A36C33",
"#. c #A36D3C",
"$. c #A76B35",
"%. c #A27234",
"&. c #A77739",
"*. c #B47A3A",
"=. c #A5732C",
"-. c #87601D",
";. c #835E43",
":. c #875F47",
">. c #8C6443",
",. c #8B654A",
"<. c #8D694B",
"1. c #876547",
"2. c #936B44",
"3. c #9B6C43",
"4. c #936C4C",
"5. c #9A6D4A",
"6. c #936643",
"7. c #9D7344",
"8. c #9D7A44",
"9. c #9C734C",
"0. c #9E7B4B",
"q. c #957348",
"w. c #8D6C51",
"e. c #946D52",
"r. c #966D57",
"t. c #957252",
"y. c #9B7453",
"u. c #9D7A54",
"i. c #9E7A59",
"p. c #99745A",
"a. c #8F714E",
"s. c #A66E44",
"d. c #A37344",
"f. c #AB7544",
"g. c #A2744C",
"h. c #AA754A",
"j. c #A37C4C",
"k. c #AB7B4D",
"l. c #A57A44",
"z. c #B37C44",
"x. c #B27B4C",
"c. c #B37748",
"v. c #A47B53",
"b. c #AC7D52",
"n. c #A37D5B",
"m. c #AA7E5A",
"M. c #A47652",
"N. c #B37E53",
"B. c #9A7563",
"V. c #A37E64",
"C. c #AF863D",
"Z. c #AD8542",
"A. c #A4834D",
"S. c #AC834C",
"D. c #AB894D",
"F. c #B48344",
"G. c #B48A44",
"H. c #BA8C45",
"J. c #B5834C",
"K. c #BB854B",
"L. c #B58C4A",
"P. c #BC8B4C",
"I. c #BA8445",
"U. c #BC9245",
"Y. c #BE944B",
"T. c #B7914A",
"R. c #A58254",
"E. c #AC8354",
"W. c #AC8B54",
"Q. c #A6825C",
"!. c #AA845C",
"~. c #AC8A5C",
"^. c #A68A55",
"/. c #B28354",
"(. c #B38B53",
"). c #BB8C53",
"_. c #B38659",
"`. c #B48B5B",
"'. c #BA8D5C",
"]. c #BA8658",
"[. c #AE935C",
"{. c #B49155",
"}. c #BD9353",
"|. c #B4935C",
" X c #BB935C",
".X c #BC9A5E",
"XX c #BC9959",
"oX c #A48262",
"OX c #AB8562",
"+X c #AC8B63",
"@X c #A8876A",
"#X c #B28D64",
"$X c #B88C66",
"%X c #AF9065",
"&X c #B49363",
"*X c #BC9562",
"=X c #B69A64",
"-X c #BC9B65",
";X c #BC9C6B",
":X c #B5976B",
">X c #BA9972",
",X c #AC8A75",
"<X c #BDA26B",
"1X c #BBA269",
"2X c #BCA172",
"3X c #B6A071",
"4X c #9F8258",
"5X c #C08A4D",
"6X c #C1964C",
"7X c #C4994D",
"8X c #CA9C4F",
"9X c #C28C52",
"0X c #C18F5B",
"qX c #C29354",
"wX c #C49B53",
"eX c #C99E54",
"rX c #C4945C",
"tX c #C49C5B",
"yX c #C9985C",
"uX c #D69D56",
"iX c #CAA255",
"pX c #CCA35B",
"aX c #CCA65A",
"sX c #D3A75D",
"dX c #C19464",
"fX c #C19C65",
"gX c #C39D6A",
"hX c #CA9C64",
"jX c #C59D73",
"kX c #C08B61",
"lX c #C3A164",
"zX c #CCA563",
"xX c #C4A36C",
"cX c #CAA46C",
"vX c #C9AB6B",
"bX c #D3AA63",
"nX c #D6AB67",
"mX c #DAB168",
"MX c #C4A572",
"NX c #C4A972",
"BX c #CBAB74",
"VX c #CDAD7A",
"CX c #C9A676",
"ZX c #D2AD7B",
"AX c #CFB17B",
"SX c #D4B47D",
"DX c #E0B66F",
"FX c #D8B986",
"GX c #C9AB81",
"HX c #DEC289",
"JX c #DCC496",
"KX c #E2C38D",
"LX c #E8CB8F",
"PX c #E4C693",
"IX c #E9CB97",
"UX c #EED49B",
/* pixels */
"g g g k l c ;.;.;.,.,.,.,.,.<.,.,.4.e.4.4.4.4.4.5.q.9.0.M.M.v.v.m.m.!.!.m.m.!.!.Q.m.n.y.y.y.t.r.1.1.1.1.:.c c d c @X@XV.oXV.V.p.",
"c l c ;.;.1.;.;.>.,.,.,.4.4.5.4.4.4.t.y.y.M.m.!.M.M.M.j.M.M.v.v.b.E.!._._._.#X#XOXOXQ.n.y.t.t.e.,.1.1.;.c c g d k V.p.<.4.e.p.e.",
"k h h f j P L >.P L 2.9.M.b.M.9.2.2.2.q.0.v.R.R.`.`.`.`.`.'.'.'.'.|.|.|.`.`.`.`.%X#X#X+XQ.Q.Q.Q.y.t.e.,.1.c g q f p.4.K L >.e.<.",
"j K L >.6.2.5.5.b.M.9.| { 3.d.d.E.R.j.j.E.W.W.E.(.W.E.D.E.E.(.(.-X-X-X-X X X{.{.&X&X&X#X+X+X+X#X+X+XoXi.t.,.k q f i.4.) >.,.t.e.",
"j ) 5.v.M.9.6.) Z ( 3.7.k._.`.'.|.`.W.(.`.{.{.(. X}.(.(.(.L.(.(.{. X.XlXlXcXvXvX=X=X&X&X~.~.~.+X&X#X#X+XOXi.,.h h n.n.9.y.t.n.t.",
">.>.>.) K P P H 3.j.E.E.E.k.j.l.(.(.(.{. X X X X X X X XtXlXcXcX{. X.XfXfXlXlXlXBXNXxX<X;X-X=X&X~.~.!.~.+XOXi.<.f m.!.v.m.M.m.i.",
"4.4.>.K j P ) 2.E.!.v.| ( 7.`.gX X*XfXfXfX.X.X.XD.D.D.(.(. XfXfX.X-XlX-X.X{.{.W.NXxX1X<XxXNXNXxX&X~.j.9.M.Q.n.q.y m.m.M.M.v.OXn.",
"i z >.4.2.>.) ) 2.j.!.R.0.0.A.W. X*X-X*X{.W.D.D.fX X X(.D.D.D.D.-XlXxXlX-X.X|.{.D.A.A.W.=XxXxXxXxX&X0.| 2.9.9.q.y n.v.9.g.M.OX!.",
"k l <.w.1.1.t.w.t.a.>.O.q.A.R.0.A.{.|.D.8.8.W..X=X;X;X=X*X-X(.8.| 7.{.lX.XtXlX.XA.^.[.=X1XNX<X1XgXW.q.q.q.u.oXa.q @XoXh 1.n.m.V.",
"c c ,.w.c ,.w.w.w.i.oXQ.u.0.u.u.R.&X~.#X~.R.~.0.:X>X;X#XOX~.v.2.Q.~.;XxX=X|.&X^.;X>XMX2X<X2X3X:XR.R.^.:X+Xu.a.q i @XoX) 4.m.i.n.",
"- - q d d g c g d d q q 0 e t t , t K 2.q.u.!.:Xm.OXm.y.e.<.1.;.k z 1.>.K ) >.l K ) ) z s i i i s z >.4Xa.l h @ h oXoX<.t.t.<.e.",
"g d d d q d - # o # o o o o o X O   + + + O   + 2 2 * O X   . .     o o   o @ o O % * + o o o # o o o @ # # i i l t.t.<.<.L P :.",
"B.r.B.@X@X,X,Xp.@ z ~.gXcXcXlXhXZXgXgXcXBX*X( : $ O O + % & q q , , 0 & + , 0 @ < 5 M 4 * % , e 0 , @ , & i @XGX:X>X>X$X$Xm.n.$X",
"k f ;.p.V.,X>XV.% a j. XtXwX}.L.Z.zXL.XXzXtXtXb W 5 : > 4 4 4 e 8 7 s > + , e + n B A v 6 > 2 e & @ @ t 0 s OXCX;X&X#X_.b.g.M.m.",
"5.6.5.M.M.!.Q.4.e V ] &.T.tXpXeXY.bXwXwXwXqXmXpX .5 $ $ 6 4 4 4 8 7 p , % e a : n S F M < = 2 2 , * * a s s R.:X*X'.`.`.b.j.k.h.",
"6.L 2.g.M.#X$X!.w H 7.k.L.}.wXpXzXZ.tXwXqXwXF.mXdX .4 4 N A A A 7 N Z e & a Z * n F I C m u y V V 2 % u 4 r E.jX*X|.*X*X_._./.h.",
"5.5.3.7.b._.b.9.0 Y {.{.C.T.}.tXpXwXY.Y.Y.wXY.Y.DXiX..1 8 T ! N R p Y s % s Y > v W Q D n N M p p > r r V 4 0.CX-X X'.*X'.k.k.b.",
"5.g.g.j.k.E.E.j.t 4 j.lXXXL.G.tXbXwXY.wXwXwXY.Y.sXsXwXZ.! N U ! U R Y s % s Y > v Q Q D b N Z a N 6 M r V 4 j.VXfX*X&X*X'.b.k.N.",
"3.g.b.k.k.E.E.E.j + Z `.lXXXG.}.tXpXpXwX}.}.}.Y.7XpXmXmXL.! N ! ! R ] Z > s Y 6 S Q @.D b B A Z Y 5 Z M C 4 j.VXgX*X*XdX*X/.b.N.",
"g.h.b.S.E./.E.E.j O % Z S.zXtXT.Z.pXbXwXG.T.}.}.Y.wXbXmXzXG.! b ! R ] ( 8 Z ] 8 B @.@.Q D B A Z ( p A V C r j.VXxX-X*XfX*X_.b.N.",
"b.k.k.S.(. X(.k.j + + % N {.lXtXL.}.wXwXY.Y.}.wXY.wXwXtXbXbXL.E ! b T ] N T ] 7 D @.$.~ D F A Z ] N ` N A 5 v.ZXxX-X*XfX*X_.b.b.",
"b.k.k.J.).rX(.l.y % & * % Y D.BXbXL.Z.wXpXY.L.wXY.wXwXY.pXmXpXL...-.U ] N T ] 8 D %.&.+.D W A M ] N ` A A 4 j.ZXBX;X*XfX*X_.E.b.",
"h.k.J.).}. X(.k.u % w w @ > ( |.bXqXL.}.}.G.Z.L.L.wXwXY.Y.iXsXbXT.! ! ] U W ! 1 Q &.*.$.Q W A M ] N ` A A 4 j.VXBXxX-XgXgX'.E./.",
"s.x.).0X).).(.k.u % y y & & 4 _ }.bXzXZ./ %.C.&.L.L.Y.wXT.T.wXmXsX&./ ..T ] ] 8 Q *.z.&.~ W A M ] N ` A A 4 j.VXVXxX-XgXgX'._.E.",
"} kX].).).k./.k.u = V m A < u % ] (.vXzXZ.! W ] pXG.wXpXL.wX6XsXsXiXC./ U U ] 7 Q $.*.z.@.B ` N ! W W ` N M j.VXBXxXxXfXdX X_.E.",
" .dX).).).J./.k.u = m C I 5 r * 6 ] {.zXtXZ.! N Y.wXY.Y.pXG.pXeXiXmXpXG.U N ! 6 G $.$.&.^ B ` p ! W W ` N p 0.VXBXxXfXfX-X X_./.",
"#.dX).).).(.(./.w = m A ' C C 2 > 7 ] (.zXlXG...G.pXY.G.pXH.wXwXiXiXaXbXG.U U 7 G +.+.+.D D ] 5 ! W ' [ N p 8.VXBXxXfX-X*X X_./.",
"d.0XrX).}.).(./.y * u F ' ` ` M 2 > 4 ] ).zXzXwXY.pXpXH.G.pXL.wXiXU.T.bXpXC.! 1 b +.+.+.D F [ 7 ! W [  .N 7 8.VXBXxXfX-X*X'._./.",
"d.).rX).}.rX(.'.a * 3 F Q @. .` 2 = > 7 o.).pXbXsXpXbXwX&.wXT.Y.Y.iX7X7XwXpXL.9 n +.*.*.^ B ` p ! W [ [ M 7 8.VXBXxXfX-X*X'._./.",
"f.).yXP.).rX(.).y 2 2 I F $.#.#.M 5 < = 4 ] }.bXsXsXbXeXG.%.pXH.U.8X7X7X6XaXsX=.^ =.*.z.~ v T p ! W ' ' M 7 8.VXBXxXfX*X&X'._./.",
"f.).hXP.).yX(. Xy w 2 ' S $.@.$.` F M < = 7 X.}.wXpXpXwXT./ Y.wXU.U.U.iX7X7XnXsXC.*.=.*.+.v A M ' W W W M 7 0.VXBXxXfX*X X'._./.",
"f.K.hXL.P.hXJ.dXt w 2 } S $.@.$.b F ` J r 4 7 U G.6XpXeXG.C./ sX8X8XU.6XU.7XmXaXuX*.+.*.%.b A Z ' W D F M p 0.VXBXxX-X*X X`._./.",
"x.J.yX).P.yX}.}.r 2 3 C ` } #.f.} F ' W B v < 4 U &.L.wXwX&.%.P.eXwX6XY.Y.wXiXsXsXiX7X&.b b D v T  .N N N 7 8.AXcXxXfXfXdX X/.k.",
"x.J.yX).P.rX).}.r 2 3 C ` } #.d.' F ' Q W B 6 5 b [ &.&.L.G.&.&.iXeX6XY.6XwXeXpX7XsXmXH.D b B 1 T ` 4 5 N M j.BXcXxXfXfXdX X].b.",
"k.J.rXP.P.rX).).r 2 5 C ` } } s.' C ' [ [ W 7 v : A [ [ &.%.[ ..iXeXY.Y.6XwXeXeXeX8XsXbXF.E v 1 W W 1 v N N j.NXxXxXfXfXdX X]./.",
"f.x.rXP.I.qXP.).r 2 5 C ` } } #.} C ' [ @.[ b B < 5 M ] d.W N ! pXwX6XY.6X7X7X6XsXU.7XnXzXG.^ 9 ! ! B W A M j.xXxXxXfXfXdX'.]./.",
"f.x.rXK.F.P.J.).u 2 r C I ` } #. .A W ! [ %.E ! W 5 $ 5 7.d.] ..pXeX7X6X6X6XY.Y.8XeXeXwXpXDXY.9 B W Q #.F p A.xXxXxXgXfXdX)._.b.",
"s.c.rXK.F.P.F.K.r 2 r V I ` ' #.3.A ` Q ~ @.^ %.[ W < $ M 7.S.}.pXiXeXwX6XY.Y.Y.Y.7XiXwXeXmXzX&.b b E @.B M E.CXxXxXgXfX*X'./.k.",
"#.c.9XI.*.I.F.K.M 3 3 V F I ' #.3.T ' ! ~ +.^ %.^ %.D < > p X.tXiXpXpXeX6XY.Y.6X7XT.7XpXwXeXsXbX&.~ E [ v M (.MXxXxXgXfX X/.k.k.",
"#.c.9XI.*.I.z.J.V 5 3 M A I ' #. .T [ ! ~ ~ E %.^ =.W N r > 7 l.eXpXpXeX6XU.Y.7X7X7XeX7XH.eXmXmXbXF.~ ~ v M (.gXxXxXxXfX'./.k.g.",
"h.f.K.9Xz.*.K.K.M 5 3 m C J { 3.| A  .N &.B %.^ =.~ ~ n E 6 6 1 X.(.zXpX7X7XY.H.7X7XwX7X7X7XeXiXbXzXP.B 1 4 `.MXxXxXgX-X'./.k.h.",
"x.f.K.9Xz.z.K.K.V r 3 m J J { 3.| Z | A %.E ~ ~ ~ ~ ~ b W 1 1 1 v &.tXpXwX7XU.G.6X6X7X7X7X7XwXeXwXwXmXL.9 + `.CXxXxXgX*X'./.k.h.",
"x.f.K.9XI.F.K.K.V 5 2 m J J { 3.{ V | A ` ! E [ ~ / ~ b ! v v 7 : N &.L.tXaX6XC.U.6X6X7X7X7X7XwXiXY.bXyX' 6 `.gXxXxXgX*X`./.k.h.",
"x.f.K.9XI.I.K.K.V 3 2 r J J { 3.( r { Z N [ b ..~ %...b [ A A N 4 6 4 ] }.bXiXC.U.U.6X6X7X7X7X7XeX6XH.qXhX#.(.xXxXxXgX*X_.b.h.h.",
"x.f.z.9XP.P.9XI.V 3 2 r C J { 3.) e ( M N ] N ..! ..%.b ] U T U ( 4 $ 4 X.XXaXiXU.U.Y.6X6X6X6X6X6XY.H.qXnX#.S.cXxXxXfX*X].k.h.h.",
"x.#.z.5XP.5X9Xz.V u * u V J J { ) r J p T ` T [ W ....7 ! T ! U ] N 4 4 p ] L.bX6XU.U.6X6X6X6XU.eXG.P.qX0XW S.*XxXgXfX'./.k.h.s.",
"x.#.z.5X5X9X9Xc.V 2 * u V P J L >.t H 4 ( N ` T W  .[ 1 T T ! U ! Y Z s 4 4 ] T.7X6XU.U.6X6X6XU.6XH.H.I.P.W S.'.gXgXdX'./.k.h.s.",
"x.$.&.K.5X9X9Xz.V u = u V V P J ) e s > { 7 ] N T  .] 6 U U ! U ! T Z a e > 7 ] wX6XU.U.Y.6XU.H.&.wXH.&.9XW d.cXxXgXdX'./.h.h.s.",
"$.z.z.z.K.9X).z.L $ u P 3 V F C ) r > > p N M 1 B W W v 7 T ] Y ( ` T N M p r 4 %.I.6XH.H.7X6XH.H.P.H.L.}.N S.gX*XgXdX].N.h.s.c.",
"f.c.c.z.I.).I.&.a O 2 V 3 m V m H 4 % $ 4 N N 7 F W A 7 7 N T N T T T Z p p p 4 9 [ ).qXP.G.G.G.H.6X}.}.tXT j. XCXgX_.b./.x.s.} ",
"h.h.h.k.].0X).l.t + t H r V V p r > + $ > p N N T W A 7 8 N Y p p Y Y Y Z Y Y Z $ 7 X.S.S.Z.L.XXZ.L.L.D.(.( 8.~.=X|.`.E.k.h.f.d.",
"{ { 3.k./.'.'._.~.q.~.&X~.&X#X`.*X`.E.W.*XgXxXfXcXcXxXfX-XxXxXxX*X-X;X-X=X;X<X<X-X|.|.-X-X|.|.-X.XlX.X|.;X`.;XGX;X;XxXgX]./.].].",
"g.m.$XjXjXCXZXFXJXFXPXPXPXUXIXIXPXPXPXPXIXIXLXKXKXKXKXKXPXLXIXLXUXUXIXPXKXPXPXPXUXPXKXIXIXKXFXHXHXLXKXKXKXPXFXIXKXSXSXZXdXdXdXN.",
":.2.M.OX+XOX%XjX>X:X2X:X:XMX2XCXCXBXVXAXAXBXxX-XxXxXNXBXBXBXBXBX1X1X=X=X;XMXMX2XCXCXCXNXNXNXAXSXSXKXHXFXSXFX;XxXxX-XBXCXb.k.].N.",
"l l 1.i.oXQ.+X:X3X2X2X:X2XVX2XCX<X<XNXNX<X1X=X=XxX1X1X<X1X-X-X<X1X<X<XMXVXGXVXMXFXFXVX<X<XxXxX-X1XxX|.A.8. Xo.8.( 7.*X*XA C x.N.",
"h t j t.@X%X%X:X:X2XNX:X2XVX;XMXNXNXNX<X<X<X<X2X<X=X[.[.[.^.^.[.[.W.W.W.[.~.0.O.O.q.0.R.-XBX|.O.vXvXD.] T  Xl.(.( { ].].C C c.c.",
"k 1.y.i.i.n.+X%X>X;X>X2XMXCXMX2X^.[.-XMXNXxX<X-X0.R.^.&X=X;XMXMXNX-XxX-XMX>Xq.q.*X7.E.] A.`.| _ BXZXSXBX7.gXd.CXE.A '.'. .h.} } ",
"K 4.i.n.i.n.OX+XOXOX+X&X&X:X&X%X;X;X<X<X-X|.W.^.xXMXNXNXMXMXMXMXNX-X<X;XMXMXE.2.*XE.&X'.E.-X7.E.W.X.l.-X7._.( jX`.( '.*Xk.].h.s.",
"k >.e.t.q.y.u.n.+X+X+X+X&X&X%X+X>X;X;X;X=X=X&X|.|.=X=X-X=X=X-X-XxX<XxXNXxXVXgX_ j.7._.`.7.g.J E.`.o.o.*X7.7.4 v.7.r 7.b.k.kXN.N.",
"l ,.4.e.t.y.n.n.OXOX+X+X+X+X+X~.~.~.~.~.&X&X;X;X[.|.=X-X-X;XxXxX|.|.|.gX|.gXgX4 g.{ `.E.b.{ { _.A.0.j.~.3.j.Z 3.J > Z { I s.s.h.",
"h ;.,.<.e.y.i.i.u.i.n.n.n.n.n.v.n.n.Q.Q.~.~.+X#X=X=X=X&X|.`.|.|.-X-X-XNX*XgXgXe g.) g.g.M.) 2.!.*XMXgX!.( ) r w 6.H ) H u y J 3.",
"h k ;.;.,.e.t.t.p.i.n.n.n.n.n.n.OXOXOXOX+X+X#X%X&X&X#X~.!.R.R.R.^.R.^.~.v.!.v.u 0.5.6.M.5.9.5.m.~.&X#X!.9.3.3.9.5.5.3.) V y L M.",
"l ;.;.;.>.<.<.1.,.4.t.t.t.q.t.9.t.t.e.4.t.u.n.Q.!.~.~.!.m.m.Q.!.Q.v.R.u.y.n.9.6.y.M.4.m.y.m.m.m.R.v.0.0.q.) >.>.L ) L L H a ) y.",
"d d d q d t d q q t j j j j j j t d q ; & 0 e t t t t e 0 0 0 t t 0 t & , t & j , e t 0 a e j t s t , 0 a y a w w y w y P w t P "
};
